<svg width="1202" height="120" viewBox="0 0 1202 120" fill="none" xmlns="http://www.w3.org/2000/svg">
<g clip-path="url(#clip0)">
<path d="M65.5535 0.266469L0 22.3834V0H65.5535V0.266469ZM0.2654 25.7587C0.2654 28.9564 5.48491 31.8874 11.6776 31.8874C13.9777 31.8874 16.1894 31.4434 18.0471 30.8215C19.9933 30.1998 81.0352 8.79349 81.0352 8.79349V96.8171C81.0352 96.8171 19.6396 118.312 17.9587 118.934C16.1894 119.556 13.6238 120 11.5891 120C5.30798 120 0 116.802 0 111.118V25.7587H0.2654Z" fill="#EC751A"/>
<path d="M162.867 58.8005C162.867 73.3675 157.293 81.3614 143.139 81.3614C128.984 81.3614 123.145 73.3675 123.145 58.8005V16.7871H131.55V58.3563C131.55 68.2157 134.292 73.2786 143.139 73.2786C151.985 73.2786 154.462 68.2157 154.462 58.3563V16.7871H162.867V58.8005Z" fill="black"/>
<path d="M198.872 53.384C198.872 48.5876 196.219 45.3011 191.53 45.3011C186.045 45.3011 183.214 48.6764 183.214 53.4727V80.9192H175.252V38.5504H183.214V42.1034C184.718 40.327 187.814 38.1064 192.857 38.1064C201.084 38.1064 206.834 43.7023 206.834 53.1175V80.8303H198.872V53.384Z" fill="black"/>
<path d="M223.2 30.5555C219.84 30.5555 217.981 28.7791 217.981 25.5814C217.981 22.2062 219.84 20.5186 223.2 20.5186C226.474 20.5186 228.421 22.2062 228.421 25.5814C228.421 28.9568 226.474 30.5555 223.2 30.5555ZM227.181 38.5496V80.8294H219.219V38.5496H227.181Z" fill="black"/>
<path d="M233.375 38.5508H242.221L252.661 70.1717L263.011 38.5508H271.857L256.465 80.8306H248.768L233.375 38.5508Z" fill="black"/>
<path d="M282.297 62.9761C283.181 70.7037 287.604 73.8124 293 73.8124C299.105 73.8124 302.731 72.3023 305.829 70.7037L307.244 78.4311C303.44 80.2077 299.547 81.3623 292.912 81.3623C282.297 81.3623 273.714 74.7894 273.714 60.1336C273.714 45.8332 281.676 38.1943 291.674 38.1943C303.086 38.1943 309.368 46.3661 309.368 58.7124V62.9761H282.297ZM300.962 56.5806C300.962 49.2084 297.335 45.3002 291.674 45.3002C287.339 45.3002 283.181 47.7873 282.297 56.5806H300.962Z" fill="black"/>
<path d="M337.589 47.344C336.615 46.9 334.846 46.2781 332.634 46.2781C329.272 46.2781 327.061 49.0316 327.061 53.384V80.8302H319.099V38.5504H327.061V43.347C328.387 40.5935 330.51 38.1064 334.756 38.1064C336.349 38.1064 337.853 38.5504 338.649 38.9059L337.589 47.344Z" fill="black"/>
<path d="M373.505 80.9194H342.189L362.27 45.3013H343.072V38.5508H374.478L355.282 73.7247H373.505V80.9194Z" fill="black"/>
<path d="M386.421 30.5555C383.059 30.5555 381.202 28.7791 381.202 25.5814C381.202 22.2062 383.059 20.5186 386.421 20.5186C389.695 20.5186 391.64 22.2062 391.64 25.5814C391.64 28.9568 389.695 30.5555 386.421 30.5555ZM390.402 38.5496V80.8294H382.44V38.5496H390.402Z" fill="black"/>
<path d="M423.046 79.9397C421.631 80.6502 419.773 81.3609 416.147 81.3609C411.28 81.3609 405.619 79.4955 405.619 70.258V45.2098H400.133V38.5481H405.619V22.1159L413.581 21.2275V38.5481H420.48V45.2098H413.581V70.1691C413.581 73.1891 415.173 74.0773 416.943 74.0773C418.977 74.0773 420.482 73.4555 421.985 72.7451L423.046 79.9397Z" fill="black"/>
<path d="M452.772 77.1877C451.444 78.6976 448.614 81.3623 442.686 81.3623C433.574 81.3623 428.442 76.566 428.442 67.8612C428.442 58.8902 434.636 54.0938 442.951 54.0938C447.375 54.0938 451.09 55.7814 452.772 57.5578V52.406C452.772 47.3431 449.41 45.4778 444.987 45.4778C440.033 45.4778 435.608 47.0766 433.219 48.0538L432.335 40.7701C434.901 39.7932 439.059 38.1943 445.871 38.1943C455.337 38.1943 460.734 43.1684 460.734 52.406V80.9181H452.772V77.1877ZM452.772 66.6178C452.772 63.3313 448.791 61.1107 444.543 61.1107C440.385 61.1107 436.848 62.8871 436.848 67.8612C436.848 72.3913 440.652 74.0789 444.543 74.0789C449.145 74.0789 452.772 71.0589 452.772 68.0389V66.6178Z" fill="black"/>
<path d="M505.409 80.9174V24.7812H489.927V16.7871H529.295V24.7812H513.813V80.9174H505.409Z" fill="black"/>
<path d="M545.396 81.3623C535.133 81.3623 526.198 75.4113 526.198 59.7783C526.198 44.1456 535.488 38.1943 545.396 38.1943C555.392 38.1943 564.592 44.1456 564.592 59.7783C564.592 75.4113 555.569 81.3623 545.396 81.3623ZM545.396 45.2113C539.114 45.2113 534.602 50.1854 534.602 59.6896C534.602 68.8383 539.291 73.7235 545.396 73.7235C551.589 73.7235 556.188 68.8383 556.188 59.6896C556.188 50.2743 551.676 45.2113 545.396 45.2113Z" fill="black"/>
<path d="M621.653 53.384C621.653 48.5876 619 45.3011 614.31 45.3011C608.826 45.3011 605.994 48.6764 605.994 53.4727V80.9192H598.032V53.384C598.032 48.5876 595.379 45.3011 590.689 45.3011C585.205 45.3011 582.375 48.6764 582.375 53.4727V80.9192H574.413V38.5504H582.375V42.1034C583.878 40.327 586.975 38.1064 592.017 38.1064C597.236 38.1064 601.394 40.327 603.783 44.324C605.994 41.1264 609.887 38.1064 615.638 38.1064C623.865 38.1064 629.615 43.7023 629.615 53.1175V80.8303H621.653V53.384Z" fill="black"/>
<path d="M663.674 77.1877C662.349 78.6976 659.516 81.3624 653.59 81.3624C644.478 81.3624 639.347 76.566 639.347 67.8613C639.347 58.8902 645.539 54.0936 653.855 54.0936C658.278 54.0936 661.994 55.7813 663.674 57.5578V52.406C663.674 47.3432 660.312 45.4778 655.89 45.4778C650.935 45.4778 646.512 47.0767 644.124 48.0536L643.24 40.7702C645.804 39.7933 649.962 38.1944 656.775 38.1944C666.24 38.1944 671.636 43.1685 671.636 52.406V80.9182H663.674V77.1877ZM663.674 66.6178C663.674 63.3314 659.693 61.1108 655.448 61.1108C651.289 61.1108 647.75 62.8872 647.75 67.8613C647.75 72.3913 651.554 74.079 655.448 74.079C660.048 74.079 663.674 71.059 663.674 68.039V66.6178ZM658.278 18.5645H667.213L658.897 32.5986H652.617L658.278 18.5645Z" fill="black"/>
<path d="M695.257 81.3624C688.623 81.3624 684.023 79.4971 681.457 78.3424L682.872 70.7925C686.234 72.3914 690.48 73.8125 695.257 73.8125C698.974 73.8125 702.513 72.7466 702.513 68.9272C702.513 65.1077 698.442 64.1308 693.932 62.9759C688.092 61.466 681.368 59.6007 681.368 50.8072C681.368 42.2803 687.295 38.1944 697.204 38.1944C703.042 38.1944 707.2 39.5268 710.033 40.6814L708.705 48.1426C705.431 46.6325 702.246 45.3003 697.381 45.3003C692.604 45.3003 689.684 46.899 689.684 50.7184C689.684 53.7384 693.135 54.7155 697.204 55.8702C703.396 57.5578 711.094 59.5119 711.094 68.7494C711.094 76.8325 706.404 81.3624 695.257 81.3624ZM683.756 18.5645H690.834L696.231 26.4696L701.627 18.5645H708.705L700.476 32.5986H691.985L683.756 18.5645Z" fill="black"/>
<path d="M726.753 62.9761C727.636 70.7037 732.059 73.8124 737.455 73.8124C743.56 73.8124 747.187 72.3023 750.284 70.7037L751.699 78.4311C747.895 80.2077 744.002 81.3623 737.368 81.3623C726.751 81.3623 718.17 74.7894 718.17 60.1336C718.17 45.8332 726.132 38.1943 736.13 38.1943C747.541 38.1943 753.823 46.3661 753.823 58.7124V62.9761H726.753ZM745.417 56.5806C745.417 49.2084 741.791 45.3002 736.13 45.3002C731.794 45.3002 727.636 47.7873 726.753 56.5806H745.417Z" fill="black"/>
<path d="M801.594 80.9174H783.901V16.7871H802.922C814.688 16.7871 821.587 23.2711 821.587 33.8412C821.587 41.1247 817.783 45.1216 812.476 47.6976C818.225 50.0957 822.031 55.6027 822.031 62.4422C822.118 74.078 814.156 80.9174 801.594 80.9174ZM803.01 24.7812H792.305V43.7894H801.859C808.406 43.7894 812.741 40.5917 812.741 34.2852C812.741 27.8012 808.671 24.7812 803.01 24.7812ZM801.859 51.8723H792.305V72.9233H801.859C808.495 72.9233 813.183 69.2816 813.183 62.7087C813.183 55.8692 808.406 51.8723 801.859 51.8723Z" fill="black"/>
<path d="M854.41 77.1877C853.082 78.6976 850.252 81.3623 844.324 81.3623C835.212 81.3623 830.08 76.566 830.08 67.8612C830.08 58.8902 836.272 54.0938 844.589 54.0938C849.012 54.0938 852.728 55.7814 854.41 57.5578V52.406C854.41 47.3431 851.048 45.4778 846.623 45.4778C841.671 45.4778 837.246 47.0766 834.857 48.0538L833.973 40.7701C836.539 39.7932 840.697 38.1943 847.509 38.1943C856.973 38.1943 862.372 43.1684 862.372 52.406V80.9181H854.41V77.1877ZM854.41 66.6178C854.41 63.3313 850.429 61.1107 846.181 61.1107C842.023 61.1107 838.486 62.8871 838.486 67.8612C838.486 72.3913 842.29 74.0789 846.181 74.0789C850.781 74.0789 854.41 71.0589 854.41 68.0389V66.6178Z" fill="black"/>
<path d="M893.246 79.9397C891.831 80.6502 889.973 81.3609 886.345 81.3609C881.48 81.3609 875.817 79.4955 875.817 70.258V45.2098H870.333V38.5481H875.817V22.1159L883.779 21.2275V38.5481H890.68V45.2098H883.779V70.1691C883.779 73.1891 885.372 74.0773 887.141 74.0773C889.175 74.0773 890.68 73.4555 892.185 72.7451L893.246 79.9397Z" fill="black"/>
<path d="M905.189 30.5555C901.827 30.5555 899.969 28.7791 899.969 25.5814C899.969 22.2062 901.827 20.5186 905.189 20.5186C908.461 20.5186 910.408 22.2062 910.408 25.5814C910.408 28.9568 908.461 30.5555 905.189 30.5555ZM909.169 38.5496V80.8294H901.208V38.5496H909.169Z" fill="black"/>
<path d="M935.709 38.5508H944.556L954.994 70.1717L965.345 38.5508H974.192L958.798 80.8306H951.103L935.709 38.5508Z" fill="black"/>
<path d="M984.543 62.9761C985.427 70.7037 989.851 73.8124 995.248 73.8124C1001.35 73.8124 1004.98 72.3023 1008.07 70.7037L1009.49 78.4311C1005.69 80.2077 1001.79 81.3623 995.158 81.3623C984.543 81.3623 975.962 74.7894 975.962 60.1336C975.962 45.8332 983.924 38.1943 993.92 38.1943C1005.33 38.1943 1011.61 46.3661 1011.61 58.7124V62.9761H984.543ZM1003.21 56.5806C1003.21 49.2084 999.583 45.3002 993.92 45.3002C989.585 45.3002 985.427 47.7873 984.543 56.5806H1003.21Z" fill="black"/>
<path d="M1074.42 80.9174H1037.36L1063.72 24.7812H1039.13V16.7871H1076.28L1049.83 72.9233H1074.42V80.9174Z" fill="black"/>
<path d="M1092.21 16.7871V80.9174H1084.24V16.7871H1092.21Z" fill="black"/>
<path d="M1109.99 18.5645H1118.92L1110.61 32.5986H1104.33L1109.99 18.5645ZM1112.55 38.5496V80.8295H1104.59V38.5496H1112.55Z" fill="black"/>
<path d="M1148.56 53.384C1148.56 48.5876 1145.9 45.3011 1141.22 45.3011C1135.73 45.3011 1132.9 48.6764 1132.9 53.4727V80.9192H1124.94V38.5504H1132.9V42.1034C1134.41 40.327 1137.5 38.1064 1142.54 38.1064C1150.77 38.1064 1156.52 43.7023 1156.52 53.1175V80.8303H1148.56V53.384Z" fill="black"/>
<path d="M1174.83 62.9759C1175.72 70.7035 1180.14 73.8125 1185.54 73.8125C1191.64 73.8125 1195.27 72.3024 1198.37 70.7035L1199.78 78.4312C1195.98 80.2077 1192.09 81.3624 1185.45 81.3624C1174.83 81.3624 1166.25 74.7894 1166.25 60.1336C1166.25 45.8331 1174.22 38.1944 1184.21 38.1944C1195.62 38.1944 1201.9 46.366 1201.9 58.7125V62.9759H1174.83ZM1171.65 18.5645H1178.73L1184.12 26.4696L1189.52 18.5645H1196.6L1188.37 32.5986H1179.88L1171.65 18.5645ZM1193.5 56.5807C1193.5 49.2085 1189.87 45.3003 1184.21 45.3003C1179.88 45.3003 1175.72 47.7873 1174.83 56.5807H1193.5Z" fill="black"/>
</g>
<defs>
<clipPath id="clip0">
<rect width="1201.9" height="120" fill="white"/>
</clipPath>
</defs>
</svg>
