<svg width="570" height="83" viewBox="0 0 570 83" fill="none" xmlns="http://www.w3.org/2000/svg">
<g clip-path="url(#clip0)">
<path d="M87.4802 29.4768C87.4742 29.4698 87.4622 29.4458 87.4382 29.4078C79.7212 16.1248 62.7472 11.5987 49.4572 19.2487C49.4502 19.2527 49.4262 19.2687 49.3882 19.2897C49.3862 19.2907 49.3852 19.2917 49.3832 19.2927C49.3802 19.2947 49.3772 19.2957 49.3752 19.2967L24.5822 33.6878C21.6282 35.4058 20.6222 39.1907 22.3382 42.1457C24.0542 45.1027 27.8412 46.1057 30.7952 44.3937L55.5512 30.0198C55.5582 30.0148 55.5822 30.0038 55.6192 29.9808C62.9912 25.7208 72.4322 28.2277 76.7192 35.5847C76.7222 35.5977 76.7352 35.6157 76.7502 35.6437C81.0132 43.0197 78.4992 52.4737 71.1222 56.7527C71.1212 56.7537 71.1202 56.7538 71.1192 56.7548L46.3292 71.1447C43.3752 72.8627 42.3702 76.6478 44.0852 79.6028C45.8032 82.5568 49.5862 83.5617 52.5422 81.8467L77.3342 67.4538C90.6012 59.7438 95.1322 42.7678 87.4802 29.4768Z" fill="#F57800"/>
<path d="M66.6153 48.995C69.5723 47.278 70.5753 43.491 68.8603 40.537C67.1413 37.581 63.3573 36.577 60.4033 38.292L35.6573 52.659C35.6533 52.661 35.6493 52.6631 35.6453 52.6651C35.6373 52.6691 35.6153 52.682 35.5773 52.705C28.2063 56.961 18.7683 54.4561 14.4793 47.1011C14.4773 47.0881 14.4653 47.067 14.4483 47.042C10.1843 39.664 12.7023 30.21 20.0793 25.933C20.0873 25.929 20.0933 25.9231 20.1013 25.9191L44.8733 11.538C47.8263 9.82204 48.8313 6.03704 47.1133 3.08204C45.3983 0.125044 41.6123 -0.877959 38.6573 0.838041L13.8663 15.23C0.596276 22.938 -3.93272 39.916 3.72028 53.205C3.72328 53.215 3.73727 53.237 3.76027 53.276C11.4763 66.558 28.4523 71.087 41.7433 63.436C41.7503 63.431 41.7733 63.418 41.8113 63.395C41.8143 63.393 41.8173 63.391 41.8203 63.389L41.8223 63.388L66.6153 48.995Z" fill="#F57800"/>
<path d="M128.34 56.507C130.488 56.507 132.053 56.142 133.033 55.41C134.013 54.679 134.503 53.645 134.503 52.309C134.503 51.515 134.337 50.83 134.005 50.258C133.674 49.685 133.199 49.168 132.582 48.707C131.967 48.246 131.216 47.8171 130.331 47.4191C129.445 47.0221 128.434 46.632 127.297 46.25C126.16 45.837 125.061 45.384 124.003 44.89C122.943 44.398 122.012 43.786 121.206 43.053C120.4 42.322 119.751 41.447 119.263 40.429C118.773 39.412 118.527 38.187 118.527 36.756C118.527 33.767 119.555 31.421 121.609 29.719C123.663 28.018 126.461 27.167 130.001 27.167C132.054 27.167 133.88 27.398 135.476 27.859C137.071 28.32 138.328 28.821 139.245 29.362L137.396 34.228C136.322 33.624 135.145 33.163 133.864 32.844C132.583 32.527 131.263 32.3671 129.906 32.3671C128.294 32.3671 127.037 32.701 126.137 33.369C125.237 34.037 124.786 34.9751 124.786 36.1841C124.786 36.9161 124.935 37.543 125.237 38.068C125.536 38.592 125.963 39.0621 126.516 39.4751C127.069 39.8891 127.717 40.271 128.459 40.62C129.202 40.97 130.016 41.305 130.901 41.622C132.449 42.194 133.832 42.7751 135.049 43.3631C136.265 43.9521 137.293 44.6511 138.13 45.4621C138.968 46.2731 139.607 47.2271 140.051 48.3251C140.493 49.4221 140.714 50.7501 140.714 52.3081C140.714 55.2981 139.664 57.612 137.561 59.25C135.459 60.888 132.386 61.707 128.341 61.707C126.982 61.707 125.74 61.6191 124.62 61.4451C123.498 61.2701 122.502 61.055 121.633 60.8C120.762 60.546 120.013 60.283 119.381 60.013C118.749 59.743 118.244 59.496 117.864 59.274L119.618 54.36C120.472 54.837 121.625 55.314 123.078 55.792C124.53 56.268 126.286 56.507 128.34 56.507Z" fill="black"/>
<path d="M145.383 29.456L151.119 28.502V36.04H159.936V40.859H151.119V51.021C151.119 53.025 151.435 54.456 152.067 55.314C152.699 56.173 153.775 56.602 155.291 56.602C156.334 56.602 157.258 56.4911 158.064 56.2681C158.87 56.0461 159.51 55.8391 159.984 55.6481L160.932 60.228C160.269 60.514 159.4 60.809 158.326 61.111C157.25 61.413 155.987 61.5639 154.533 61.5639C152.762 61.5639 151.285 61.326 150.1 60.849C148.915 60.372 147.974 59.68 147.279 58.774C146.584 57.868 146.094 56.771 145.81 55.482C145.525 54.194 145.383 52.723 145.383 51.069V29.456Z" fill="black"/>
<path d="M185.139 60.228C184.032 60.514 182.595 60.809 180.825 61.111C179.054 61.413 177.111 61.564 174.993 61.564C173.002 61.564 171.335 61.278 169.991 60.705C168.647 60.133 167.574 59.3381 166.768 58.3201C165.962 57.3031 165.385 56.0861 165.037 54.6701C164.689 53.2551 164.516 51.7041 164.516 50.0191V36.041H170.252V49.1131C170.252 51.7851 170.638 53.6931 171.413 54.8381C172.187 55.9821 173.539 56.555 175.467 56.555C176.161 56.555 176.897 56.523 177.672 56.46C178.446 56.397 179.023 56.3171 179.402 56.2211V36.041H185.138V60.228H185.139Z" fill="black"/>
<path d="M213.006 60.2277C211.867 60.5777 210.438 60.8958 208.715 61.1818C206.992 61.4678 205.183 61.6107 203.288 61.6107C201.328 61.6107 199.574 61.3077 198.025 60.7047C196.476 60.1017 195.158 59.2348 194.066 58.1048C192.976 56.9768 192.138 55.6087 191.554 54.0027C190.968 52.3967 190.678 50.5908 190.678 48.5878C190.678 46.6158 190.922 44.8267 191.412 43.2207C191.901 41.6147 192.621 40.2387 193.569 39.0947C194.517 37.9497 195.67 37.0668 197.029 36.4468C198.388 35.8258 199.953 35.5167 201.723 35.5167C202.924 35.5167 203.982 35.6597 204.899 35.9457C205.815 36.2317 206.605 36.5507 207.269 36.8997V24.9237L213.005 23.9697V60.2277H213.006ZM196.555 48.4448C196.555 50.9888 197.155 52.9848 198.357 54.4318C199.558 55.8798 201.216 56.6027 203.335 56.6027C204.251 56.6027 205.033 56.5628 205.681 56.4838C206.328 56.4048 206.858 56.3168 207.269 56.2208V41.9087C206.762 41.5587 206.091 41.2337 205.254 40.9307C204.416 40.6287 203.524 40.4768 202.575 40.4768C200.49 40.4768 198.965 41.1917 198.001 42.6237C197.037 44.0547 196.555 45.9958 196.555 48.4448Z" fill="black"/>
<path d="M218.543 48.635C218.543 46.441 218.866 44.516 219.515 42.863C220.162 41.21 221.023 39.8329 222.099 38.7359C223.172 37.6389 224.405 36.812 225.796 36.255C227.186 35.699 228.609 35.4199 230.062 35.4199C233.476 35.4199 236.138 36.4859 238.051 38.6159C239.962 40.7479 240.918 43.9279 240.918 48.1579C240.918 48.4759 240.911 48.8339 240.896 49.2319C240.879 49.6299 240.855 49.9879 240.824 50.3059H224.469C224.626 52.3089 225.33 53.8599 226.578 54.9569C227.826 56.0539 229.635 56.6029 232.007 56.6029C233.397 56.6029 234.668 56.476 235.822 56.221C236.976 55.967 237.885 55.6969 238.548 55.4099L239.308 60.1329C238.991 60.2919 238.557 60.4589 238.004 60.6339C237.451 60.8089 236.819 60.9679 236.108 61.1109C235.396 61.2539 234.629 61.3739 233.808 61.4679C232.987 61.5629 232.15 61.6109 231.296 61.6109C229.115 61.6109 227.219 61.2849 225.607 60.6329C223.995 59.9809 222.668 59.0749 221.625 57.9139C220.582 56.7529 219.807 55.386 219.302 53.811C218.794 52.237 218.543 50.512 218.543 48.635ZM235.182 46.059C235.182 45.264 235.071 44.5089 234.851 43.7929C234.629 43.0769 234.306 42.4569 233.879 41.9319C233.452 41.4069 232.931 40.9939 232.315 40.6909C231.698 40.3889 230.964 40.2369 230.11 40.2369C229.225 40.2369 228.45 40.404 227.787 40.738C227.123 41.072 226.561 41.5099 226.103 42.0499C225.645 42.5909 225.29 43.2119 225.037 43.9109C224.783 44.6109 224.61 45.3269 224.515 46.0579H235.182V46.059Z" fill="black"/>
<path d="M246.452 36.8505C247.557 36.5335 248.995 36.2305 250.766 35.9445C252.535 35.6585 254.494 35.5156 256.644 35.5156C258.666 35.5156 260.357 35.7945 261.716 36.3505C263.075 36.9075 264.158 37.6855 264.964 38.6875C265.77 39.6895 266.339 40.8985 266.67 42.3135C267.003 43.7295 267.169 45.2805 267.169 46.9655V60.9916H261.433V47.8716C261.433 46.5366 261.346 45.3995 261.172 44.4605C260.998 43.5225 260.714 42.7596 260.32 42.1706C259.924 41.5826 259.386 41.1535 258.708 40.8825C258.027 40.6125 257.198 40.4766 256.218 40.4766C255.491 40.4766 254.732 40.5245 253.943 40.6195C253.152 40.7145 252.568 40.7955 252.189 40.8585V60.9916H246.453V36.8505H246.452Z" fill="black"/>
<path d="M273.378 29.456L279.114 28.502V36.04H287.932V40.859H279.114V51.021C279.114 53.025 279.43 54.456 280.062 55.314C280.694 56.173 281.77 56.602 283.287 56.602C284.33 56.602 285.254 56.4911 286.06 56.2681C286.866 56.0461 287.506 55.8391 287.979 55.6481L288.927 60.228C288.264 60.514 287.395 60.809 286.321 61.111C285.245 61.413 283.982 61.5639 282.528 61.5639C280.757 61.5639 279.279 61.326 278.094 60.849C276.909 60.372 275.968 59.68 275.273 58.774C274.578 57.868 274.088 56.771 273.804 55.482C273.519 54.194 273.377 52.723 273.377 51.069V29.456H273.378Z" fill="black"/>
<path d="M300.358 56.8399C301.876 56.8399 302.981 56.6579 303.676 56.2919C304.371 55.9269 304.719 55.2989 304.719 54.4079C304.719 53.5819 304.347 52.8979 303.605 52.3559C302.862 51.8159 301.638 51.2279 299.93 50.5909C298.888 50.2099 297.932 49.8039 297.063 49.3749C296.194 48.9449 295.443 48.445 294.811 47.872C294.179 47.3 293.681 46.6079 293.318 45.7969C292.954 44.9859 292.773 43.9929 292.773 42.8159C292.773 40.5259 293.61 38.7209 295.285 37.4009C296.96 36.0819 299.235 35.4219 302.111 35.4219C303.564 35.4219 304.956 35.5579 306.283 35.8269C307.611 36.0979 308.607 36.3599 309.27 36.6139L308.227 41.2889C307.595 41.0029 306.789 40.7409 305.81 40.5019C304.83 40.2629 303.692 40.145 302.396 40.145C301.226 40.145 300.278 40.3439 299.551 40.7409C298.824 41.1389 298.461 41.7509 298.461 42.5779C298.461 42.9919 298.531 43.3569 298.674 43.6749C298.816 43.9929 299.06 44.2869 299.408 44.5579C299.755 44.8279 300.214 45.0989 300.783 45.3689C301.352 45.6389 302.047 45.9169 302.87 46.2039C304.228 46.7129 305.382 47.2139 306.33 47.7069C307.278 48.2009 308.06 48.757 308.677 49.377C309.293 49.997 309.744 50.7049 310.028 51.4989C310.313 52.2949 310.455 53.2489 310.455 54.3609C310.455 56.7469 309.579 58.5519 307.823 59.7759C306.069 61.0009 303.564 61.613 300.309 61.613C298.128 61.613 296.374 61.4299 295.047 61.0649C293.72 60.6999 292.788 60.405 292.25 60.182L293.246 55.363C294.1 55.713 295.119 56.0479 296.304 56.3649C297.491 56.6819 298.842 56.8399 300.358 56.8399Z" fill="black"/>
<path d="M321.213 45.7717C321.939 45.0087 322.713 44.1907 323.536 43.3147C324.358 42.4407 325.164 41.5657 325.954 40.6907C326.743 39.8167 327.494 38.9737 328.205 38.1627C328.917 37.3517 329.525 36.6437 330.031 36.0397H336.811C335.234 37.8207 333.57 39.6658 331.82 41.5738C330.07 43.4818 328.312 45.3428 326.547 47.1558C327.492 47.9508 328.486 48.9127 329.527 50.0417C330.568 51.1707 331.576 52.3718 332.555 53.6438C333.532 54.9158 334.446 56.1887 335.299 57.4607C336.15 58.7327 336.861 59.9107 337.428 60.9907H330.79C330.221 60.0047 329.565 58.9717 328.823 57.8897C328.08 56.8087 327.283 55.7598 326.429 54.7418C325.577 53.7248 324.706 52.7617 323.821 51.8557C322.936 50.9497 322.067 50.1787 321.215 49.5417V60.9918H315.479V24.9237L321.215 23.9697V45.7717H321.213Z" fill="black"/>
<path d="M349.439 35.4203C351.335 35.4203 352.931 35.6583 354.227 36.1353C355.522 36.6123 356.557 37.2803 357.332 38.1393C358.106 38.9983 358.659 40.0403 358.992 41.2633C359.323 42.4883 359.489 43.8323 359.489 45.2953V60.4194C358.604 60.6094 357.269 60.8413 355.483 61.1113C353.698 61.3813 351.683 61.5163 349.439 61.5163C347.953 61.5163 346.594 61.3734 345.361 61.0874C344.13 60.8014 343.078 60.3403 342.209 59.7033C341.34 59.0683 340.66 58.2403 340.171 57.2223C339.679 56.2053 339.435 54.9493 339.435 53.4533C339.435 52.0223 339.712 50.8143 340.265 49.8273C340.818 48.8423 341.569 48.0383 342.517 47.4183C343.465 46.7973 344.563 46.3533 345.811 46.0823C347.059 45.8123 348.363 45.6773 349.722 45.6773C350.354 45.6773 351.018 45.7174 351.713 45.7964C352.408 45.8764 353.151 46.0113 353.942 46.2023V45.2483C353.942 44.5803 353.863 43.9443 353.705 43.3403C353.546 42.7363 353.271 42.2034 352.876 41.7424C352.48 41.2814 351.958 40.9233 351.31 40.6683C350.663 40.4143 349.848 40.2863 348.869 40.2863C347.541 40.2863 346.325 40.3814 345.218 40.5724C344.111 40.7634 343.211 40.9854 342.516 41.2404L341.804 36.5653C342.531 36.3113 343.59 36.0573 344.98 35.8023C346.374 35.5473 347.858 35.4203 349.439 35.4203ZM349.914 56.9364C351.683 56.9364 353.026 56.8403 353.943 56.6503V50.2573C353.627 50.1613 353.168 50.0664 352.568 49.9714C351.967 49.8764 351.304 49.8283 350.577 49.8283C349.945 49.8283 349.305 49.8764 348.657 49.9714C348.008 50.0664 347.424 50.2413 346.903 50.4953C346.381 50.7503 345.962 51.1083 345.646 51.5693C345.33 52.0303 345.171 52.6113 345.171 53.3103C345.171 54.6793 345.598 55.6243 346.452 56.1493C347.306 56.6743 348.459 56.9364 349.914 56.9364ZM356.598 25.8313L348.871 33.3693L346.026 30.7933L352.995 22.4443L356.598 25.8313Z" fill="black"/>
<path d="M397.888 60.228C396.782 60.514 395.344 60.809 393.574 61.111C391.803 61.413 389.86 61.564 387.742 61.564C385.751 61.564 384.084 61.278 382.74 60.705C381.396 60.133 380.323 59.3381 379.517 58.3201C378.711 57.3031 378.134 56.0861 377.786 54.6701C377.438 53.2551 377.265 51.7041 377.265 50.0191V36.041H383.001V49.1131C383.001 51.7851 383.387 53.6931 384.162 54.8381C384.936 55.9821 386.288 56.555 388.216 56.555C388.91 56.555 389.646 56.523 390.421 56.46C391.195 56.397 391.772 56.3171 392.151 56.2211V36.041H397.887V60.228H397.888Z" fill="black"/>
<path d="M404.64 36.8505C405.745 36.5335 407.183 36.2305 408.954 35.9445C410.723 35.6585 412.682 35.5156 414.832 35.5156C416.854 35.5156 418.545 35.7945 419.904 36.3505C421.263 36.9075 422.346 37.6855 423.152 38.6875C423.958 39.6895 424.527 40.8985 424.858 42.3135C425.191 43.7295 425.357 45.2805 425.357 46.9655V60.9916H419.621V47.8716C419.621 46.5366 419.534 45.3995 419.36 44.4605C419.186 43.5225 418.902 42.7596 418.508 42.1706C418.112 41.5826 417.574 41.1535 416.896 40.8825C416.215 40.6125 415.386 40.4766 414.406 40.4766C413.679 40.4766 412.92 40.5245 412.131 40.6195C411.34 40.7145 410.756 40.7955 410.377 40.8585V60.9916H404.641V36.8505H404.64Z" fill="black"/>
<path d="M438.208 28.7411C438.208 29.8221 437.86 30.6811 437.166 31.3171C436.47 31.9541 435.648 32.2711 434.7 32.2711C433.72 32.2711 432.882 31.9541 432.188 31.3171C431.492 30.6811 431.145 29.8221 431.145 28.7411C431.145 27.6281 431.492 26.7532 432.188 26.1172C432.882 25.4812 433.72 25.1631 434.7 25.1631C435.648 25.1631 436.469 25.4812 437.166 26.1172C437.86 26.7532 438.208 27.6281 438.208 28.7411ZM437.592 60.9911H431.856V36.0401H437.592V60.9911Z" fill="black"/>
<path d="M443.015 48.635C443.015 46.441 443.338 44.516 443.987 42.863C444.634 41.21 445.495 39.8329 446.571 38.7359C447.644 37.6389 448.877 36.812 450.268 36.255C451.658 35.699 453.081 35.4199 454.534 35.4199C457.948 35.4199 460.61 36.4859 462.523 38.6159C464.434 40.7479 465.39 43.9279 465.39 48.1579C465.39 48.4759 465.383 48.8339 465.368 49.2319C465.351 49.6299 465.327 49.9879 465.296 50.3059H448.941C449.098 52.3089 449.802 53.8599 451.05 54.9569C452.298 56.0539 454.107 56.6029 456.479 56.6029C457.869 56.6029 459.14 56.476 460.294 56.221C461.448 55.967 462.357 55.6969 463.02 55.4099L463.78 60.1329C463.463 60.2919 463.029 60.4589 462.475 60.6339C461.922 60.8089 461.29 60.9679 460.579 61.1109C459.867 61.2539 459.1 61.3739 458.279 61.4679C457.458 61.5629 456.621 61.6109 455.767 61.6109C453.586 61.6109 451.691 61.2849 450.079 60.6329C448.467 59.9809 447.14 59.0749 446.097 57.9139C445.054 56.7529 444.278 55.386 443.774 53.811C443.266 52.237 443.015 50.512 443.015 48.635ZM459.654 46.059C459.654 45.264 459.543 44.5089 459.323 43.7929C459.101 43.0769 458.778 42.4569 458.351 41.9319C457.924 41.4069 457.403 40.9939 456.787 40.6909C456.171 40.3889 455.436 40.2369 454.582 40.2369C453.697 40.2369 452.922 40.404 452.259 40.738C451.595 41.072 451.033 41.5099 450.575 42.0499C450.117 42.5909 449.762 43.2119 449.509 43.9109C449.255 44.6109 449.082 45.3269 448.987 46.0579H459.654V46.059Z" fill="black"/>
<path d="M496.061 61.7067C493.817 61.7067 491.889 61.3807 490.277 60.7287C488.666 60.0767 487.329 59.1627 486.272 57.9857C485.212 56.8097 484.43 55.4257 483.924 53.8357C483.419 52.2457 483.166 50.4958 483.166 48.5878V27.9307H489.187V48.0157C489.187 49.5107 489.353 50.7907 489.684 51.8567C490.017 52.9227 490.49 53.7887 491.106 54.4567C491.723 55.1247 492.45 55.6178 493.287 55.9358C494.124 56.2548 495.065 56.4127 496.108 56.4127C497.151 56.4127 498.099 56.2538 498.953 55.9358C499.805 55.6188 500.541 55.1247 501.156 54.4567C501.773 53.7887 502.247 52.9227 502.579 51.8567C502.912 50.7917 503.077 49.5117 503.077 48.0157V27.9307H509.097V48.5878C509.097 50.4958 508.837 52.2457 508.315 53.8357C507.794 55.4257 507.003 56.8097 505.945 57.9857C504.886 59.1637 503.535 60.0777 501.892 60.7287C500.249 61.3797 498.305 61.7067 496.061 61.7067Z" fill="black"/>
<path d="M539.719 27.9297V33.1298H529.621V60.9907H523.601V33.1298H513.503V27.9297H539.719Z" fill="black"/>
<path d="M554.168 61.3727C552.43 61.3727 550.676 61.3167 548.906 61.2057C547.135 61.0937 545.586 60.8648 544.259 60.5138V28.4058C544.954 28.2798 545.697 28.1597 546.488 28.0487C547.277 27.9367 548.083 27.8497 548.906 27.7857C549.727 27.7227 550.541 27.6748 551.346 27.6428C552.152 27.6108 552.919 27.5947 553.646 27.5947C555.637 27.5947 557.485 27.7467 559.193 28.0487C560.899 28.3517 562.376 28.8517 563.625 29.5517C564.873 30.2517 565.845 31.1737 566.542 32.3187C567.236 33.4637 567.584 34.8797 567.584 36.5647C567.584 38.1237 567.213 39.4597 566.47 40.5727C565.727 41.6857 564.692 42.5767 563.365 43.2437C565.356 43.9117 566.825 44.8977 567.773 46.2017C568.722 47.5067 569.196 49.1597 569.196 51.1637C569.196 54.5667 567.963 57.1197 565.499 58.8207C563.033 60.5217 559.257 61.3727 554.168 61.3727ZM550.138 41.3827H554.358C556.634 41.3827 558.419 41.0567 559.715 40.4047C561.011 39.7527 561.658 38.5847 561.658 36.8987C561.658 35.3087 560.987 34.1797 559.643 33.5117C558.301 32.8437 556.554 32.5097 554.405 32.5097C553.488 32.5097 552.675 32.5257 551.963 32.5577C551.252 32.5897 550.643 32.6367 550.137 32.7007V41.3827H550.138ZM550.138 46.1057V56.1717C550.802 56.2367 551.513 56.2837 552.272 56.3147C553.03 56.3467 553.725 56.3628 554.357 56.3628C555.59 56.3628 556.734 56.2837 557.795 56.1237C558.854 55.9647 559.769 55.6867 560.545 55.2887C561.319 54.8917 561.935 54.3588 562.394 53.6908C562.852 53.0228 563.081 52.1647 563.081 51.1147C563.081 49.2377 562.401 47.9337 561.042 47.2027C559.683 46.4717 557.802 46.1057 555.401 46.1057H550.138Z" fill="black"/>
</g>
<defs>
<clipPath id="clip0">
<rect width="570" height="83" fill="white"/>
</clipPath>
</defs>
</svg>
