<svg width="940" height="212" viewBox="0 0 940 212" fill="none" xmlns="http://www.w3.org/2000/svg">
<g clip-path="url(#clip0)">
<path d="M94.3118 136.097V140.488H81.9112V156.606H77.2957V121.59H96.2581V125.981H81.9112V136.152H94.3118V136.097Z" fill="black"/>
<path d="M110.883 154.55C110.16 155.384 108.603 156.829 105.322 156.829C100.318 156.829 97.4814 154.217 97.4814 149.437C97.4814 144.545 100.874 141.878 105.434 141.878C107.88 141.878 109.882 142.822 110.827 143.767V140.933C110.827 138.154 108.992 137.153 106.546 137.153C103.821 137.153 101.374 138.042 100.095 138.543L99.5947 134.541C100.985 133.985 103.32 133.151 107.046 133.151C112.273 133.151 115.22 135.875 115.22 140.933V156.551H110.827V154.55H110.883ZM110.883 148.77C110.883 146.991 108.714 145.768 106.379 145.768C104.099 145.768 102.153 146.713 102.153 149.437C102.153 151.938 104.266 152.827 106.379 152.827C108.881 152.827 110.883 151.16 110.883 149.548V148.77Z" fill="black"/>
<path d="M126.454 156.606H122.061V121.59H126.454V142.655L134.016 133.484H139.633L131.125 143.267L140.967 156.606H135.407L126.454 144.1V156.606Z" fill="black"/>
<path d="M156.871 154.384C156.093 155.384 154.758 156.829 151.31 156.829C146.806 156.829 143.859 153.772 143.859 148.603V133.43H148.252V148.492C148.252 151.104 149.475 152.939 152.033 152.939C155.203 152.939 156.871 150.604 156.871 147.992V133.485H161.264V156.607H156.871V154.384Z" fill="black"/>
<path d="M172.442 121.536V156.552H168.049V121.536H172.442Z" fill="black"/>
<path d="M189.402 156.052C188.624 156.441 187.623 156.83 185.621 156.83C182.952 156.83 179.838 155.829 179.838 150.772V137.099H176.835V133.43H179.838V124.426L184.231 123.926V133.43H188.012V137.099H184.231V150.772C184.231 152.439 185.12 152.884 186.066 152.884C187.178 152.884 188.012 152.55 188.846 152.161L189.402 156.052Z" fill="black"/>
<path d="M205.696 154.55C204.972 155.384 203.416 156.829 200.134 156.829C195.13 156.829 192.294 154.217 192.294 149.437C192.294 144.545 195.686 141.878 200.246 141.878C202.692 141.878 204.693 142.822 205.639 143.767V140.933C205.639 138.154 203.805 137.153 201.358 137.153C198.633 137.153 196.186 138.042 194.907 138.543L194.407 134.541C195.797 133.985 198.133 133.151 201.858 133.151C207.085 133.151 210.032 135.875 210.032 140.933V156.551H205.639V154.55H205.696ZM205.696 148.77C205.696 146.991 203.526 145.768 201.191 145.768C198.911 145.768 196.965 146.713 196.965 149.437C196.965 151.938 199.078 152.827 201.191 152.827C203.693 152.827 205.696 151.16 205.696 149.548V148.77Z" fill="black"/>
<path d="M240.006 154.55C239.282 155.384 237.726 156.829 234.445 156.829C229.44 156.829 226.604 154.217 226.604 149.437C226.604 144.545 229.997 141.878 234.555 141.878C237.002 141.878 239.005 142.822 239.951 143.767V140.933C239.951 138.154 238.114 137.153 235.668 137.153C232.944 137.153 230.497 138.042 229.218 138.543L228.718 134.541C230.107 133.985 232.387 133.151 236.168 133.151C241.395 133.151 244.342 135.875 244.342 140.933V156.551H239.951V154.55H240.006ZM240.006 148.77C240.006 146.991 237.838 145.768 235.501 145.768C233.221 145.768 231.274 146.713 231.274 149.437C231.274 151.938 233.388 152.827 235.501 152.827C238.005 152.827 240.006 151.16 240.006 149.548V148.77Z" fill="black"/>
<path d="M261.36 156.829C258.079 156.829 256.354 155.44 255.575 154.717V166.056H251.182V133.485H255.575V135.486C256.242 134.708 257.522 133.263 261.136 133.263C266.087 133.263 270.813 136.987 270.813 145.268C270.868 153.994 265.586 156.829 261.36 156.829ZM260.693 137.098C257.855 137.098 255.575 138.765 255.575 142.378V147.213C255.575 150.937 258.022 152.66 260.693 152.66C263.75 152.66 266.253 150.826 266.253 145.157C266.253 139.543 263.416 137.098 260.693 137.098Z" fill="black"/>
<path d="M281.101 121.536V156.552H276.708V121.536H281.101Z" fill="black"/>
<path d="M290.054 129.094C288.217 129.094 287.162 128.149 287.162 126.371C287.162 124.537 288.163 123.592 290.054 123.592C291.834 123.592 292.944 124.537 292.944 126.371C292.944 128.205 291.889 129.094 290.054 129.094ZM292.277 133.485V156.607H287.884V133.485H292.277Z" fill="black"/>
<path d="M303.455 156.606H299.062V121.59H303.455V142.655L311.018 133.484H316.633L308.125 143.267L318.024 156.606H312.409L303.455 144.1V156.606Z" fill="black"/>
<path d="M328.534 156.829C322.863 156.829 317.969 153.55 317.969 144.99C317.969 136.431 323.085 133.207 328.534 133.207C334.039 133.207 339.1 136.486 339.1 144.99C339.1 153.605 334.151 156.829 328.534 156.829ZM328.534 137.098C325.086 137.098 322.584 139.821 322.584 144.99C322.584 149.993 325.143 152.66 328.534 152.66C331.926 152.66 334.485 149.993 334.485 144.99C334.485 139.821 332.038 137.098 328.534 137.098Z" fill="black"/>
<path d="M340.1 133.485H344.939L350.666 150.771L356.339 133.485H361.232L352.779 156.607H348.553L340.1 133.485Z" fill="black"/>
<path d="M375.58 154.55C374.856 155.384 373.3 156.829 370.019 156.829C365.013 156.829 362.178 154.217 362.178 149.437C362.178 144.545 365.569 141.878 370.129 141.878C372.576 141.878 374.579 142.822 375.523 143.767V140.933C375.523 138.154 373.688 137.153 371.241 137.153C368.516 137.153 366.069 138.042 364.792 138.543L364.291 134.541C365.681 133.985 368.016 133.151 371.742 133.151C376.969 133.151 379.916 135.875 379.916 140.933V156.551H375.523V154.55H375.58ZM375.58 148.77C375.58 146.991 373.409 145.768 371.075 145.768C368.795 145.768 366.848 146.713 366.848 149.437C366.848 151.938 368.961 152.827 371.075 152.827C373.633 152.827 375.58 151.16 375.58 149.548V148.77Z" fill="black"/>
<path d="M399.769 141.544C399.769 138.932 398.323 137.098 395.764 137.098C392.762 137.098 391.204 138.932 391.204 141.544V156.551H386.813V133.429H391.204V135.375C392.04 134.43 393.763 133.207 396.488 133.207C400.991 133.207 404.162 136.264 404.162 141.433V156.607H399.769V141.544Z" fill="black"/>
<path d="M414.228 146.769C414.728 150.993 417.175 152.716 420.122 152.716C423.457 152.716 425.459 151.882 427.183 150.993L427.962 155.217C425.849 156.162 423.736 156.829 420.065 156.829C414.228 156.829 409.501 153.216 409.501 145.212C409.501 137.375 413.894 133.207 419.398 133.207C425.682 133.207 429.13 137.653 429.13 144.434V146.769H414.228ZM424.458 143.267C424.458 139.209 422.457 137.097 419.343 137.097C416.951 137.097 414.671 138.431 414.171 143.267H424.458ZM420.122 122.535H425.015L420.455 130.205H417.008L420.122 122.535Z" fill="black"/>
<path d="M447.814 129.094C445.979 129.094 444.923 128.149 444.923 126.371C444.923 124.537 445.924 123.592 447.814 123.592C449.593 123.592 450.706 124.537 450.706 126.371C450.706 128.205 449.65 129.094 447.814 129.094ZM450.039 133.485V156.607H445.645V133.485H450.039Z" fill="black"/>
<path d="M469.78 141.544C469.78 138.932 468.334 137.098 465.777 137.098C462.773 137.098 461.217 138.932 461.217 141.544V156.551H456.824V133.429H461.217V135.375C462.051 134.43 463.774 133.207 466.499 133.207C471.004 133.207 474.173 136.264 474.173 141.433V156.607H469.78V141.544Z" fill="black"/>
<path d="M491.579 126.149C490.745 125.76 489.575 125.204 488.465 125.204C486.74 125.204 485.961 126.204 485.961 127.816V133.43H489.742V137.098H485.961V156.607H481.568V137.098H478.566V133.43H481.568V128.317C481.568 123.259 484.181 121.258 488.019 121.258C490.021 121.258 491.355 121.869 492.079 122.203L491.579 126.149Z" fill="black"/>
<path d="M503.2 156.829C497.583 156.829 492.634 153.55 492.634 144.99C492.634 136.431 497.75 133.207 503.2 133.207C508.706 133.207 513.766 136.486 513.766 144.99C513.71 153.605 508.761 156.829 503.2 156.829ZM503.2 137.098C499.753 137.098 497.249 139.821 497.249 144.99C497.249 149.993 499.808 152.66 503.2 152.66C506.593 152.66 509.15 149.993 509.15 144.99C509.095 139.821 506.648 137.098 503.2 137.098Z" fill="black"/>
<path d="M529.281 138.265C528.724 138.042 527.778 137.653 526.556 137.653C524.721 137.653 523.497 139.154 523.497 141.544V156.551H519.104V133.429H523.497V136.042C524.221 134.541 525.388 133.151 527.723 133.151C528.614 133.151 529.448 133.374 529.837 133.596L529.281 138.265Z" fill="black"/>
<path d="M560.199 141.544C560.199 138.932 558.753 137.098 556.139 137.098C553.137 137.098 551.579 138.932 551.579 141.544V156.551H547.186V141.489C547.186 138.876 545.742 137.042 543.183 137.042C540.179 137.042 538.623 138.876 538.623 141.489V156.495H534.23V133.374H538.623V135.319C539.457 134.374 541.182 133.151 543.905 133.151C546.797 133.151 549.077 134.374 550.357 136.542C551.579 134.819 553.692 133.151 556.863 133.151C561.366 133.151 564.537 136.208 564.537 141.377V156.551H560.144V141.544H560.199Z" fill="black"/>
<path d="M583.277 154.55C582.553 155.384 580.997 156.829 577.717 156.829C572.711 156.829 569.874 154.217 569.874 149.437C569.874 144.545 573.266 141.878 577.826 141.878C580.273 141.878 582.275 142.822 583.22 143.767V140.933C583.22 138.154 581.386 137.153 578.939 137.153C576.213 137.153 573.767 138.042 572.487 138.543L571.987 134.541C573.378 133.985 575.658 133.151 579.439 133.151C584.666 133.151 587.614 135.875 587.614 140.933V156.551H583.22V154.55H583.277ZM583.277 148.77C583.277 146.991 581.107 145.768 578.772 145.768C576.492 145.768 574.546 146.713 574.546 149.437C574.546 151.938 576.659 152.827 578.772 152.827C581.274 152.827 583.277 151.16 583.277 149.548V148.77Z" fill="black"/>
<path d="M604.629 156.052C603.852 156.441 602.851 156.83 600.848 156.83C598.179 156.83 595.066 155.829 595.066 150.772V137.099H592.062V133.43H595.066V124.426L599.459 123.926V133.43H603.24V137.099H599.459V150.772C599.459 152.439 600.348 152.884 601.293 152.884C602.406 152.884 603.24 152.55 604.074 152.161L604.629 156.052Z" fill="black"/>
<path d="M611.247 129.094C609.413 129.094 608.355 128.149 608.355 126.371C608.355 124.537 609.356 123.592 611.247 123.592C613.027 123.592 614.139 124.537 614.139 126.371C614.082 128.205 613.027 129.094 611.247 129.094ZM613.415 133.485V156.607H609.022V133.485H613.415Z" fill="black"/>
<path d="M624.594 156.606H620.2V121.59H624.594V142.655L632.156 133.484H637.773L629.263 143.267L639.162 156.606H633.547L624.594 144.1V156.606Z" fill="black"/>
<path d="M647.894 166V152.883L639.163 133.43H644.056L650.117 148.048L656.178 133.43H661.072L652.342 152.883V166H647.894Z" fill="black"/>
<path d="M41.1493 46.1667L-0.000788183 60.0065V46H41.1493V46.1667ZM0.166037 62.1186C0.166037 64.1195 3.44693 65.9537 7.33953 65.9537C8.78534 65.9537 10.1756 65.6758 11.3433 65.2867C12.5667 64.8976 50.8252 51.5025 50.8252 51.5025V106.472C50.8252 106.472 12.2887 119.923 11.2321 120.312C10.1199 120.701 8.50729 120.979 7.22829 120.979C3.28011 120.979 -0.0563965 118.978 -0.0563965 115.421V62.1186H0.166037Z" fill="#FCC400"/>
<path d="M102.319 82.7393C102.319 91.8547 98.816 96.8568 89.9187 96.8568C81.0212 96.8568 77.3511 91.8547 77.3511 82.7393V56.5049H82.6339V82.517C82.6339 88.6865 84.3579 91.8547 89.9187 91.8547C95.4794 91.8547 97.0366 88.6865 97.0366 82.517V56.5049H102.319V82.7393Z" fill="black"/>
<path d="M124.952 79.3491C124.952 76.3477 123.284 74.2912 120.336 74.2912C116.889 74.2912 115.109 76.4034 115.109 79.4049V96.5793H110.104V70.1228H115.109V72.346C116.054 71.2343 118.001 69.8447 121.171 69.8447C126.342 69.8447 129.957 73.3465 129.957 79.2381V96.5793H124.952V79.3491Z" fill="black"/>
<path d="M140.244 65.1196C138.131 65.1196 136.963 64.0079 136.963 62.007C136.963 59.8949 138.131 58.8389 140.244 58.8389C142.302 58.8389 143.525 59.8949 143.525 62.007C143.525 64.1191 142.302 65.1196 140.244 65.1196ZM142.747 70.1218V96.5786H137.742V70.1218H142.747Z" fill="black"/>
<path d="M146.639 70.123H152.2L158.762 89.9098L165.268 70.123H170.829L161.153 96.5796H156.315L146.639 70.123Z" fill="black"/>
<path d="M177.335 85.352C177.891 90.1876 180.672 92.1328 184.064 92.1328C187.901 92.1328 190.181 91.188 192.127 90.1876L193.017 95.0232C190.626 96.1347 188.179 96.8573 184.008 96.8573C177.335 96.8573 171.941 92.7442 171.941 83.5733C171.941 74.6248 176.946 69.8447 183.23 69.8447C190.403 69.8447 194.351 74.9584 194.351 82.6841V85.352H177.335ZM189.069 81.3501C189.069 76.7368 186.789 74.2912 183.23 74.2912C180.505 74.2912 177.891 75.8476 177.335 81.3501H189.069Z" fill="black"/>
<path d="M212.091 75.6253C211.479 75.3474 210.366 74.9584 208.977 74.9584C206.864 74.9584 205.472 76.6813 205.472 79.4049V96.5793H200.468V70.1228H205.472V73.1242C206.306 71.4011 207.641 69.8447 210.311 69.8447C211.312 69.8447 212.258 70.1228 212.758 70.3451L212.091 75.6253Z" fill="black"/>
<path d="M234.667 96.5796H214.981L227.605 74.2915H215.538V70.123H235.279L223.212 92.1331H234.667V96.5796Z" fill="black"/>
<path d="M242.786 65.1196C240.673 65.1196 239.506 64.0079 239.506 62.007C239.506 59.8949 240.673 58.8389 242.786 58.8389C244.843 58.8389 246.067 59.8949 246.067 62.007C246.067 64.1191 244.843 65.1196 242.786 65.1196ZM245.288 70.1218V96.5786H240.285V70.1218H245.288Z" fill="black"/>
<path d="M265.808 95.9668C264.917 96.4116 263.75 96.8562 261.47 96.8562C258.413 96.8562 254.853 95.689 254.853 89.9084V74.2901H251.406V70.1216H254.853V59.839L259.857 59.2832V70.1216H264.195V74.2901H259.857V89.9084C259.857 91.7983 260.86 92.354 261.97 92.354C263.249 92.354 264.195 91.9651 265.141 91.5203L265.808 95.9668Z" fill="black"/>
<path d="M284.436 94.245C283.603 95.1899 281.823 96.8573 278.097 96.8573C272.369 96.8573 269.144 93.8559 269.144 88.4089C269.144 82.7952 273.036 79.7937 278.264 79.7937C281.044 79.7937 283.381 80.8499 284.436 81.9615V78.7377C284.436 75.5697 282.323 74.4025 279.543 74.4025C276.429 74.4025 273.649 75.403 272.148 76.0144L271.59 71.4566C273.203 70.8452 275.817 69.8447 280.1 69.8447C286.049 69.8447 289.442 72.9574 289.442 78.7377V96.5793H284.436V94.245ZM284.436 87.6308C284.436 85.5743 281.935 84.1847 279.264 84.1847C276.651 84.1847 274.428 85.2965 274.428 88.4089C274.428 91.2436 276.817 92.2996 279.264 92.2996C282.156 92.2996 284.436 90.4099 284.436 88.5202V87.6308Z" fill="black"/>
<path d="M317.524 96.579V61.5072H307.792V56.5049H332.538V61.5072H322.806V96.579H317.524Z" fill="black"/>
<path d="M342.659 96.8573C336.207 96.8573 330.592 93.1333 330.592 83.351C330.592 73.5688 336.431 69.8447 342.659 69.8447C348.942 69.8447 354.726 73.5688 354.726 83.351C354.726 93.1333 349.054 96.8573 342.659 96.8573ZM342.659 74.2912C338.711 74.2912 335.874 77.4039 335.874 83.351C335.874 89.0758 338.821 92.1328 342.659 92.1328C346.552 92.1328 349.444 89.0758 349.444 83.351C349.444 77.4039 346.607 74.2912 342.659 74.2912Z" fill="black"/>
<path d="M390.537 79.3491C390.537 76.3477 388.869 74.2912 385.922 74.2912C382.474 74.2912 380.695 76.4034 380.695 79.4049V96.5793H375.689V79.3491C375.689 76.3477 374.021 74.2912 371.074 74.2912C367.627 74.2912 365.847 76.4034 365.847 79.4049V96.5793H360.842V70.1228H365.847V72.346C366.793 71.2343 368.739 69.8447 371.908 69.8447C375.189 69.8447 377.802 71.2343 379.306 73.7356C380.695 71.7346 383.141 69.8447 386.756 69.8447C391.928 69.8447 395.542 73.3465 395.542 79.2381V96.5793H390.537V79.3491Z" fill="black"/>
<path d="M416.951 94.2453C416.117 95.1901 414.337 96.8577 410.611 96.8577C404.884 96.8577 401.66 93.8562 401.66 88.4093C401.66 82.7955 405.551 79.7941 410.778 79.7941C413.558 79.7941 415.895 80.8503 416.951 81.9618V78.7381C416.951 75.5699 414.838 74.4028 412.057 74.4028C408.944 74.4028 406.163 75.4033 404.662 76.0147L404.107 71.4569C405.718 70.8455 408.331 69.845 412.615 69.845C418.564 69.845 421.956 72.9577 421.956 78.7381V96.5796H416.951V94.2453ZM416.951 87.6311C416.951 85.5746 414.449 84.185 411.781 84.185C409.167 84.185 406.942 85.2966 406.942 88.4093C406.942 91.2439 409.334 92.2999 411.781 92.2999C414.671 92.2999 416.951 90.4102 416.951 88.5203V87.6311ZM413.558 57.6172H419.176L413.949 66.399H410.001L413.558 57.6172Z" fill="black"/>
<path d="M436.804 96.8577C432.633 96.8577 429.742 95.6904 428.129 94.9678L429.018 90.2434C431.132 91.2439 433.802 92.1331 436.804 92.1331C439.139 92.1331 441.364 91.4662 441.364 89.0762C441.364 86.6861 438.805 86.0747 435.97 85.3523C432.299 84.4074 428.073 83.2401 428.073 77.7376C428.073 72.4019 431.799 69.845 438.026 69.845C441.698 69.845 444.311 70.6787 446.091 71.4014L445.257 76.0702C443.199 75.1252 441.197 74.2916 438.138 74.2916C435.136 74.2916 433.3 75.292 433.3 77.6821C433.3 79.5718 435.47 80.1831 438.026 80.9058C441.919 81.9618 446.758 83.1846 446.758 88.9651C446.758 94.023 443.811 96.8577 436.804 96.8577ZM429.576 57.6172H434.024L437.416 62.5639L440.807 57.6172H445.257L440.085 66.399H434.746L429.576 57.6172Z" fill="black"/>
<path d="M456.6 85.352C457.157 90.1876 459.938 92.1328 463.33 92.1328C467.166 92.1328 469.446 91.188 471.393 90.1876L472.281 95.0232C469.892 96.1347 467.445 96.8573 463.273 96.8573C456.6 96.8573 451.206 92.7442 451.206 83.5733C451.206 74.6248 456.212 69.8447 462.494 69.8447C469.668 69.8447 473.618 74.9584 473.618 82.6841V85.352H456.6ZM468.334 81.3501C468.334 76.7368 466.054 74.2912 462.494 74.2912C459.771 74.2912 457.157 75.8476 456.6 81.3501H468.334Z" fill="black"/>
<path d="M503.646 96.579H492.523V56.5049H504.48C511.875 56.5049 516.214 60.5623 516.214 67.1766C516.214 71.7341 513.822 74.2354 510.484 75.8473C514.1 77.3479 516.49 80.7939 516.49 85.0736C516.49 92.2993 511.542 96.579 503.646 96.579ZM504.535 61.5072H497.807V73.4015H503.813C507.927 73.4015 510.653 71.4008 510.653 67.4544C510.653 63.397 508.094 61.5072 504.535 61.5072ZM503.813 78.4039H497.807V91.5766H503.813C507.982 91.5766 510.929 89.2979 510.929 85.1849C510.929 80.9052 507.927 78.4039 503.813 78.4039Z" fill="black"/>
<path d="M536.788 94.245C535.954 95.1899 534.175 96.8573 530.449 96.8573C524.721 96.8573 521.495 93.8559 521.495 88.4089C521.495 82.7952 525.388 79.7937 530.615 79.7937C533.396 79.7937 535.731 80.8499 536.788 81.9615V78.7377C536.788 75.5697 534.675 74.4025 531.895 74.4025C528.781 74.4025 526 75.403 524.497 76.0144L523.942 71.4566C525.555 70.8452 528.169 69.8447 532.45 69.8447C538.401 69.8447 541.792 72.9574 541.792 78.7377V96.5793H536.788V94.245ZM536.788 87.6308C536.788 85.5743 534.284 84.1847 531.616 84.1847C529.002 84.1847 526.777 85.2965 526.777 88.4089C526.777 91.2436 529.169 92.2996 531.616 92.2996C534.508 92.2996 536.788 90.4099 536.788 88.5202V87.6308Z" fill="black"/>
<path d="M561.199 95.9668C560.311 96.4116 559.143 96.8562 556.863 96.8562C553.804 96.8562 550.245 95.689 550.245 89.9084V74.2901H546.797V70.1216H550.245V59.839L555.25 59.2832V70.1216H559.587V74.2901H555.25V89.9084C555.25 91.7983 556.251 92.354 557.363 92.354C558.643 92.354 559.587 91.9651 560.532 91.5203L561.199 95.9668Z" fill="black"/>
<path d="M568.706 65.1196C566.593 65.1196 565.426 64.0079 565.426 62.007C565.426 59.8949 566.593 58.8389 568.706 58.8389C570.765 58.8389 571.987 59.8949 571.987 62.007C571.987 64.1191 570.765 65.1196 568.706 65.1196ZM571.21 70.1218V96.5786H566.205V70.1218H571.21Z" fill="black"/>
</g>
<defs>
<clipPath id="clip0">
<rect width="661.017" height="120" fill="white" transform="translate(0 46)"/>
</clipPath>
</defs>
</svg>
