<svg width="940" height="212" viewBox="0 0 940 212" fill="none" xmlns="http://www.w3.org/2000/svg">
<g clip-path="url(#clip0)">
<path d="M94.2854 136.098V140.489H81.8882V156.607H77.2739V121.591H96.2313V125.982H81.8882V136.153H94.2854V136.098Z" fill="black"/>
<path d="M110.852 154.551C110.13 155.385 108.573 156.83 105.293 156.83C100.29 156.83 97.4543 154.218 97.4543 149.438C97.4543 144.546 100.845 141.879 105.404 141.879C107.85 141.879 109.852 142.823 110.797 143.768V140.934C110.797 138.155 108.962 137.154 106.516 137.154C103.792 137.154 101.346 138.043 100.067 138.544L99.567 134.542C100.957 133.986 103.292 133.152 107.016 133.152C112.242 133.152 115.189 135.876 115.189 140.934V156.552H110.797V154.551H110.852ZM110.852 148.771C110.852 146.992 108.684 145.769 106.349 145.769C104.07 145.769 102.124 146.714 102.124 149.438C102.124 151.939 104.237 152.828 106.349 152.828C108.851 152.828 110.852 151.16 110.852 149.549V148.771Z" fill="black"/>
<path d="M126.418 156.607H122.026V121.591H126.418V142.656L133.979 133.485H139.594L131.088 143.268L140.928 156.607H135.369L126.418 144.101V156.607Z" fill="black"/>
<path d="M156.827 154.384C156.049 155.384 154.715 156.829 151.268 156.829C146.765 156.829 143.819 153.772 143.819 148.603V133.43H148.211V148.492C148.211 151.104 149.434 152.939 151.991 152.939C155.16 152.939 156.827 150.604 156.827 147.992V133.485H161.219V156.607H156.827V154.384Z" fill="black"/>
<path d="M172.394 121.536V156.552H168.002V121.536H172.394Z" fill="black"/>
<path d="M189.349 156.052C188.571 156.441 187.571 156.83 185.569 156.83C182.901 156.83 179.787 155.829 179.787 150.772V137.099H176.785V133.43H179.787V124.426L184.179 123.926V133.43H187.96V137.099H184.179V150.772C184.179 152.439 185.069 152.884 186.014 152.884C187.126 152.884 187.96 152.55 188.794 152.161L189.349 156.052Z" fill="black"/>
<path d="M205.637 154.551C204.915 155.385 203.359 156.83 200.079 156.83C195.076 156.83 192.24 154.218 192.24 149.438C192.24 144.546 195.632 141.879 200.19 141.879C202.636 141.879 204.637 142.823 205.582 143.768V140.934C205.582 138.155 203.748 137.154 201.302 137.154C198.578 137.154 196.132 138.043 194.853 138.544L194.353 134.542C195.743 133.986 198.078 133.152 201.802 133.152C207.029 133.152 209.974 135.876 209.974 140.934V156.552H205.582V154.551H205.637ZM205.637 148.771C205.637 146.992 203.469 145.769 201.135 145.769C198.856 145.769 196.91 146.714 196.91 149.438C196.91 151.939 199.023 152.828 201.135 152.828C203.636 152.828 205.637 151.16 205.637 149.549V148.771Z" fill="black"/>
<path d="M254.003 141.545C254.003 138.933 252.559 137.099 249.946 137.099C246.944 137.099 245.388 138.933 245.388 141.545V156.552H240.995V141.49C240.995 138.877 239.551 137.043 236.937 137.043C233.935 137.043 232.379 138.877 232.379 141.49V156.496H227.986V133.375H232.379V135.32C233.213 134.375 234.936 133.152 237.659 133.152C240.551 133.152 242.829 134.375 244.109 136.543C245.331 134.82 247.444 133.152 250.613 133.152C255.116 133.152 258.285 136.209 258.285 141.378V156.552H253.894V141.545H254.003Z" fill="black"/>
<path d="M277.131 154.551C276.409 155.385 274.851 156.83 271.572 156.83C266.569 156.83 263.733 154.218 263.733 149.438C263.733 144.546 267.124 141.879 271.682 141.879C274.129 141.879 276.13 142.823 277.076 143.768V140.934C277.076 138.155 275.241 137.154 272.794 137.154C270.071 137.154 267.624 138.043 266.345 138.544L265.845 134.542C267.236 133.986 269.514 133.152 273.295 133.152C278.52 133.152 281.467 135.876 281.467 140.934V156.552H277.076V154.551H277.131ZM277.131 148.771C277.131 146.992 274.963 145.769 272.628 145.769C270.348 145.769 268.403 146.714 268.403 149.438C268.403 151.939 270.514 152.828 272.628 152.828C275.129 152.828 277.131 151.16 277.131 149.549V148.771Z" fill="black"/>
<path d="M301.259 141.545C301.259 138.933 299.813 137.099 297.199 137.099C294.197 137.099 292.641 138.933 292.641 141.545V156.552H288.25V133.43H292.641V135.376C293.475 134.431 295.143 133.208 297.923 133.208C302.427 133.208 305.595 136.265 305.595 141.434V156.608H301.202V141.545H301.259Z" fill="black"/>
<path d="M324.384 154.551C323.662 155.385 322.104 156.83 318.826 156.83C313.822 156.83 310.987 154.218 310.987 149.438C310.987 144.546 314.378 141.879 318.938 141.879C321.382 141.879 323.384 142.823 324.329 143.768V140.934C324.329 138.155 322.495 137.154 320.048 137.154C317.325 137.154 314.878 138.043 313.601 138.544L313.1 134.542C314.489 133.986 316.824 133.152 320.548 133.152C325.773 133.152 328.721 135.876 328.721 140.934V156.552H324.329V154.551H324.384ZM324.384 148.771C324.384 146.992 322.216 145.769 319.881 145.769C317.603 145.769 315.657 146.714 315.657 149.438C315.657 151.939 317.77 152.828 319.881 152.828C322.44 152.828 324.384 151.16 324.384 149.549V148.771Z" fill="black"/>
<path d="M354.238 156.33C354.238 163.388 350.18 166.001 344.731 166.001C340.95 166.001 338.227 164.889 337.114 164.333L337.893 160.22C339.283 160.776 341.563 161.888 344.677 161.888C347.567 161.888 349.847 159.887 349.847 156.607V153.717C349.18 154.551 347.288 156.33 343.843 156.33C339.616 156.33 334.613 153.439 334.613 144.936C334.613 136.654 339.34 133.152 344.286 133.152C347.955 133.152 349.18 134.486 349.902 135.264V133.375H354.293V156.33H354.238ZM349.847 142.379C349.847 138.71 347.567 137.099 344.731 137.099C342.008 137.099 339.173 139.266 339.173 144.991C339.173 150.327 341.563 152.217 344.453 152.217C347.345 152.217 349.79 150.494 349.79 146.77V142.379H349.847Z" fill="black"/>
<path d="M364.3 146.77C364.8 150.994 367.247 152.717 370.194 152.717C373.53 152.717 375.531 151.883 377.254 150.994L378.033 155.218C375.919 156.163 373.806 156.83 370.137 156.83C364.3 156.83 359.575 153.217 359.575 145.213C359.575 137.377 363.966 133.208 369.47 133.208C375.753 133.208 379.2 137.655 379.2 144.435V146.77H364.3ZM374.585 143.268C374.585 139.211 372.584 137.099 369.47 137.099C367.08 137.099 364.8 138.433 364.3 143.268H374.585Z" fill="black"/>
<path d="M410.498 141.545C410.498 138.933 409.053 137.099 406.44 137.099C403.438 137.099 401.882 138.933 401.882 141.545V156.552H397.489V141.49C397.489 138.877 396.045 137.043 393.486 137.043C390.484 137.043 388.928 138.877 388.928 141.49V156.496H384.537V133.375H388.928V135.32C389.762 134.375 391.485 133.152 394.21 133.152C397.1 133.152 399.38 134.375 400.658 136.543C401.882 134.82 403.993 133.152 407.162 133.152C411.665 133.152 414.834 136.209 414.834 141.378V156.552H410.443V141.545H410.498Z" fill="black"/>
<path d="M424.953 146.77C425.453 150.994 427.9 152.717 430.845 152.717C434.18 152.717 436.182 151.883 437.906 150.994L438.683 155.218C436.572 156.163 434.459 156.83 430.79 156.83C424.953 156.83 420.228 153.217 420.228 145.213C420.228 137.377 424.619 133.208 430.123 133.208C436.405 133.208 439.851 137.655 439.851 144.435V146.77H424.953ZM435.238 143.268C435.238 139.211 433.237 137.099 430.123 137.099C427.733 137.099 425.453 138.433 424.953 143.268H435.238Z" fill="black"/>
<path d="M458.142 141.545C458.142 138.933 456.696 137.099 454.139 137.099C451.137 137.099 449.581 138.933 449.581 141.545V156.552H445.188V133.43H449.581V135.376C450.415 134.431 452.138 133.208 454.861 133.208C459.364 133.208 462.533 136.265 462.533 141.434V156.608H458.142V141.545Z" fill="black"/>
<path d="M479.489 156.052C478.71 156.441 477.71 156.83 475.708 156.83C473.04 156.83 469.926 155.829 469.926 150.772V137.099H466.924V133.43H469.926V124.426L474.319 123.926V133.43H478.098V137.099H474.319V150.772C474.319 152.439 475.208 152.884 476.154 152.884C477.264 152.884 478.098 152.55 478.932 152.161L479.489 156.052Z" fill="black"/>
<path d="M496.889 154.384C496.11 155.384 494.776 156.829 491.331 156.829C486.828 156.829 483.881 153.772 483.881 148.603V133.43H488.272V148.492C488.272 151.104 489.496 152.939 492.053 152.939C495.222 152.939 496.889 150.604 496.889 147.992V133.485H501.281V156.607H496.889V154.384Z" fill="black"/>
<path d="M531.134 154.551C530.412 155.385 528.856 156.83 525.575 156.83C520.572 156.83 517.737 154.218 517.737 149.438C517.737 144.546 521.127 141.879 525.687 141.879C528.132 141.879 530.133 142.823 531.079 143.768V140.934C531.079 138.155 529.245 137.154 526.798 137.154C524.074 137.154 521.628 138.043 520.35 138.544L519.85 134.542C521.239 133.986 523.519 133.152 527.298 133.152C532.525 133.152 535.47 135.876 535.47 140.934V156.552H531.079V154.551H531.134ZM531.134 148.771C531.134 146.992 528.966 145.769 526.631 145.769C524.353 145.769 522.407 146.714 522.407 149.438C522.407 151.939 524.52 152.828 526.631 152.828C529.133 152.828 531.134 151.16 531.134 149.549V148.771Z" fill="black"/>
<path d="M556.763 146.77C557.264 150.994 559.654 152.717 562.656 152.717C565.991 152.717 567.992 151.883 569.717 150.994L570.494 155.218C568.383 156.163 566.27 156.83 562.601 156.83C556.763 156.83 552.039 153.217 552.039 145.213C552.039 137.377 556.43 133.208 561.933 133.208C568.216 133.208 571.662 137.655 571.662 144.435V146.77H556.763ZM567.049 143.268C567.049 139.211 565.047 137.099 561.933 137.099C559.544 137.099 557.264 138.433 556.763 143.268H567.049Z" fill="black"/>
<path d="M581.39 156.607H576.999V121.591H581.39V142.656L588.952 133.485H594.565L586.06 143.268L595.956 156.607H590.341L581.39 144.101V156.607Z" fill="black"/>
<path d="M606.463 156.83C600.793 156.83 595.899 153.551 595.899 144.991C595.899 136.432 601.015 133.208 606.463 133.208C611.967 133.208 617.026 136.487 617.026 144.991C617.026 153.606 612.077 156.83 606.463 156.83ZM606.463 137.099C603.016 137.099 600.514 139.822 600.514 144.991C600.514 149.994 603.071 152.661 606.463 152.661C609.854 152.661 612.411 149.994 612.411 144.991C612.411 139.822 609.909 137.099 606.463 137.099Z" fill="black"/>
<path d="M635.371 141.545C635.371 138.933 633.925 137.099 631.314 137.099C628.312 137.099 626.754 138.933 626.754 141.545V156.552H622.363V133.43H626.754V135.376C627.588 134.431 629.255 133.208 632.036 133.208C636.539 133.208 639.708 136.265 639.708 141.434V156.608H635.316V141.545H635.371Z" fill="black"/>
<path d="M655.664 156.83C649.993 156.83 645.1 153.551 645.1 144.991C645.1 136.432 650.215 133.208 655.664 133.208C661.167 133.208 666.226 136.487 666.226 144.991C666.171 153.606 661.222 156.83 655.664 156.83ZM655.664 137.099C652.216 137.099 649.714 139.822 649.714 144.991C649.714 149.994 652.271 152.661 655.664 152.661C659.054 152.661 661.611 149.994 661.611 144.991C661.556 139.822 659.109 137.099 655.664 137.099Z" fill="black"/>
<path d="M697.526 141.545C697.526 138.933 696.079 137.099 693.523 137.099C690.521 137.099 688.963 138.933 688.963 141.545V156.552H684.572V141.49C684.572 138.877 683.125 137.043 680.514 137.043C677.512 137.043 675.954 138.877 675.954 141.49V156.496H671.563V133.375H675.954V135.32C676.788 134.375 678.456 133.152 681.236 133.152C684.126 133.152 686.406 134.375 687.685 136.543C688.908 134.82 691.021 133.152 694.19 133.152C698.693 133.152 701.862 136.209 701.862 141.378V156.552H697.469V141.545H697.526Z" fill="black"/>
<path d="M710.923 129.094C709.088 129.094 708.031 128.15 708.031 126.371C708.031 124.537 709.031 123.592 710.923 123.592C712.7 123.592 713.813 124.537 713.813 126.371C713.758 128.205 712.7 129.094 710.923 129.094ZM713.091 133.485V156.607H708.698V133.485H713.091Z" fill="black"/>
<path d="M724.265 156.607H719.874V121.591H724.265V142.656L731.825 133.485H737.441L728.935 143.268L738.83 156.607H733.214L724.265 144.101V156.607Z" fill="black"/>
<path d="M747.557 166V152.883L738.83 133.43H743.721L749.782 148.048L755.841 133.43H760.733L752.005 152.883V166H747.557Z" fill="black"/>
<path d="M41.148 46.1667L-0.000789996 60.0065V46H41.148V46.1667ZM0.166029 62.1186C0.166029 64.1195 3.44682 65.9537 7.33927 65.9537C8.78503 65.9537 10.1752 65.6758 11.3429 65.2867C12.5663 64.8976 50.8236 51.5025 50.8236 51.5025V106.472C50.8236 106.472 12.2882 119.923 11.2317 120.312C10.1196 120.701 8.50701 120.979 7.22805 120.979C3.28 120.979 -0.0563965 118.978 -0.0563965 115.421V62.1186H0.166029Z" fill="#64B9E4"/>
<path d="M101.968 82.7345C101.968 91.8498 98.465 96.8519 89.5677 96.8519C80.6702 96.8519 77 91.8498 77 82.7345V56.5H82.2829V82.5122C82.2829 88.6816 84.0068 91.8498 89.5677 91.8498C95.1283 91.8498 96.6855 88.6816 96.6855 82.5122V56.5H101.968V82.7345Z" fill="black"/>
<path d="M124.601 79.3443C124.601 76.3428 122.932 74.2864 119.985 74.2864C116.537 74.2864 114.758 76.3986 114.758 79.4V96.5744H109.753V70.1179H114.758V72.3411C115.703 71.2294 117.65 69.8398 120.819 69.8398C125.991 69.8398 129.605 73.3416 129.605 79.2332V96.5744H124.601V79.3443Z" fill="black"/>
<path d="M139.893 65.1147C137.78 65.1147 136.612 64.0031 136.612 62.0021C136.612 59.89 137.78 58.834 139.893 58.834C141.951 58.834 143.174 59.89 143.174 62.0021C143.174 64.1142 141.951 65.1147 139.893 65.1147ZM142.395 70.117V96.5737H137.391V70.117H142.395Z" fill="black"/>
<path d="M146.288 70.1182H151.849L158.411 89.9049L164.917 70.1182H170.478L160.802 96.5747H155.964L146.288 70.1182Z" fill="black"/>
<path d="M176.984 85.3471C177.54 90.1827 180.321 92.1279 183.713 92.1279C187.55 92.1279 189.83 91.1832 191.776 90.1827L192.666 95.0183C190.274 96.1298 187.828 96.8525 183.657 96.8525C176.984 96.8525 171.59 92.7393 171.59 83.5685C171.59 74.6199 176.595 69.8398 182.879 69.8398C190.052 69.8398 194 74.9535 194 82.6792V85.3471H176.984ZM188.718 81.3452C188.718 76.7319 186.438 74.2864 182.879 74.2864C180.154 74.2864 177.54 75.8427 176.984 81.3452H188.718Z" fill="black"/>
<path d="M211.74 75.6204C211.127 75.3426 210.015 74.9535 208.626 74.9535C206.513 74.9535 205.121 76.6764 205.121 79.4V96.5744H200.117V70.1179H205.121V73.1193C205.955 71.3962 207.289 69.8398 209.96 69.8398C210.961 69.8398 211.906 70.1179 212.407 70.3402L211.74 75.6204Z" fill="black"/>
<path d="M234.316 96.5747H214.63L227.254 74.2866H215.187V70.1182H234.928L222.861 92.1282H234.316V96.5747Z" fill="black"/>
<path d="M242.435 65.1147C240.322 65.1147 239.155 64.0031 239.155 62.0021C239.155 59.89 240.322 58.834 242.435 58.834C244.491 58.834 245.716 59.89 245.716 62.0021C245.716 64.1142 244.491 65.1147 242.435 65.1147ZM244.937 70.117V96.5737H239.934V70.117H244.937Z" fill="black"/>
<path d="M265.457 95.9619C264.566 96.4067 263.399 96.8513 261.119 96.8513C258.062 96.8513 254.502 95.6841 254.502 89.9035V74.2852H251.055V70.1167H254.502V59.8341L259.506 59.2783V70.1167H263.844V74.2852H259.506V89.9035C259.506 91.7934 260.508 92.3491 261.619 92.3491C262.898 92.3491 263.844 91.9602 264.79 91.5154L265.457 95.9619Z" fill="black"/>
<path d="M284.085 94.2401C283.251 95.1851 281.472 96.8525 277.746 96.8525C272.018 96.8525 268.792 93.851 268.792 88.404C268.792 82.7903 272.685 79.7889 277.912 79.7889C280.693 79.7889 283.03 80.8451 284.085 81.9566V78.7329C284.085 75.5649 281.972 74.3976 279.192 74.3976C276.078 74.3976 273.298 75.3981 271.797 76.0095L271.239 71.4517C272.852 70.8403 275.466 69.8398 279.749 69.8398C285.698 69.8398 289.091 72.9525 289.091 78.7329V96.5744H284.085V94.2401ZM284.085 87.6259C284.085 85.5694 281.584 84.1798 278.913 84.1798C276.3 84.1798 274.077 85.2916 274.077 88.404C274.077 91.2387 276.466 92.2947 278.913 92.2947C281.805 92.2947 284.085 90.405 284.085 88.5153V87.6259Z" fill="black"/>
<path d="M317.173 96.5741V61.5023H307.441V56.5H332.187V61.5023H322.455V96.5741H317.173Z" fill="black"/>
<path d="M342.308 96.8525C335.856 96.8525 330.241 93.1284 330.241 83.3461C330.241 73.5639 336.08 69.8398 342.308 69.8398C348.591 69.8398 354.375 73.5639 354.375 83.3461C354.375 93.1284 348.702 96.8525 342.308 96.8525ZM342.308 74.2864C338.36 74.2864 335.523 77.399 335.523 83.3461C335.523 89.071 338.47 92.1279 342.308 92.1279C346.201 92.1279 349.093 89.071 349.093 83.3461C349.093 77.399 346.256 74.2864 342.308 74.2864Z" fill="black"/>
<path d="M390.186 79.3443C390.186 76.3428 388.518 74.2864 385.571 74.2864C382.123 74.2864 380.344 76.3986 380.344 79.4V96.5744H375.338V79.3443C375.338 76.3428 373.67 74.2864 370.723 74.2864C367.276 74.2864 365.496 76.3986 365.496 79.4V96.5744H360.491V70.1179H365.496V72.3411C366.442 71.2294 368.388 69.8398 371.557 69.8398C374.838 69.8398 377.451 71.2294 378.954 73.7307C380.344 71.7297 382.79 69.8398 386.405 69.8398C391.577 69.8398 395.191 73.3416 395.191 79.2332V96.5744H390.186V79.3443Z" fill="black"/>
<path d="M416.6 94.2404C415.766 95.1852 413.986 96.8528 410.26 96.8528C404.533 96.8528 401.309 93.8514 401.309 88.4044C401.309 82.7906 405.2 79.7892 410.427 79.7892C413.207 79.7892 415.544 80.8454 416.6 81.9569V78.7332C416.6 75.565 414.487 74.3979 411.706 74.3979C408.592 74.3979 405.812 75.3984 404.311 76.0098L403.756 71.452C405.367 70.8406 407.98 69.8402 412.264 69.8402C418.213 69.8402 421.605 72.9528 421.605 78.7332V96.5747H416.6V94.2404ZM416.6 87.6262C416.6 85.5697 414.098 84.1802 411.43 84.1802C408.816 84.1802 406.591 85.2917 406.591 88.4044C406.591 91.239 408.983 92.295 411.43 92.295C414.32 92.295 416.6 90.4053 416.6 88.5154V87.6262ZM413.207 57.6123H418.825L413.598 66.3941H409.65L413.207 57.6123Z" fill="black"/>
<path d="M436.453 96.8528C432.281 96.8528 429.391 95.6855 427.778 94.9629L428.667 90.2385C430.78 91.239 433.451 92.1282 436.453 92.1282C438.788 92.1282 441.013 91.4613 441.013 89.0713C441.013 86.6812 438.454 86.0699 435.619 85.3474C431.948 84.4025 427.721 83.2352 427.721 77.7327C427.721 72.397 431.448 69.8402 437.675 69.8402C441.347 69.8402 443.96 70.6739 445.74 71.3965L444.906 76.0653C442.848 75.1204 440.846 74.2867 437.787 74.2867C434.785 74.2867 432.949 75.2871 432.949 77.6772C432.949 79.5669 435.119 80.1783 437.675 80.9009C441.568 81.9569 446.407 83.1797 446.407 88.9602C446.407 94.0181 443.46 96.8528 436.453 96.8528ZM429.224 57.6123H433.673L437.065 62.559L440.456 57.6123H444.906L439.734 66.3941H434.395L429.224 57.6123Z" fill="black"/>
<path d="M456.249 85.3471C456.806 90.1827 459.587 92.1279 462.979 92.1279C466.815 92.1279 469.095 91.1832 471.041 90.1827L471.93 95.0183C469.54 96.1298 467.094 96.8525 462.922 96.8525C456.249 96.8525 450.855 92.7393 450.855 83.5685C450.855 74.6199 455.86 69.8398 462.143 69.8398C469.317 69.8398 473.267 74.9535 473.267 82.6792V85.3471H456.249ZM467.983 81.3452C467.983 76.7319 465.702 74.2864 462.143 74.2864C459.42 74.2864 456.806 75.8427 456.249 81.3452H467.983Z" fill="black"/>
<path d="M503.295 96.5741H492.172V56.5H504.129C511.524 56.5 515.862 60.5574 515.862 67.1717C515.862 71.7292 513.471 74.2305 510.133 75.8424C513.749 77.343 516.139 80.789 516.139 85.0688C516.139 92.2944 511.191 96.5741 503.295 96.5741ZM504.184 61.5023H497.456V73.3966H503.462C507.576 73.3966 510.302 71.3959 510.302 67.4495C510.302 63.3921 507.743 61.5023 504.184 61.5023ZM503.462 78.399H497.456V91.5717H503.462C507.631 91.5717 510.578 89.293 510.578 85.18C510.578 80.9003 507.576 78.399 503.462 78.399Z" fill="black"/>
<path d="M536.437 94.2401C535.603 95.1851 533.824 96.8525 530.097 96.8525C524.37 96.8525 521.144 93.851 521.144 88.404C521.144 82.7903 525.037 79.7889 530.264 79.7889C533.045 79.7889 535.379 80.8451 536.437 81.9566V78.7329C536.437 75.5649 534.324 74.3976 531.544 74.3976C528.43 74.3976 525.649 75.3981 524.146 76.0095L523.591 71.4517C525.204 70.8403 527.817 69.8398 532.099 69.8398C538.05 69.8398 541.441 72.9525 541.441 78.7329V96.5744H536.437V94.2401ZM536.437 87.6259C536.437 85.5694 533.933 84.1798 531.265 84.1798C528.651 84.1798 526.426 85.2916 526.426 88.404C526.426 91.2387 528.818 92.2947 531.265 92.2947C534.157 92.2947 536.437 90.405 536.437 88.5153V87.6259Z" fill="black"/>
<path d="M560.848 95.9619C559.96 96.4067 558.792 96.8513 556.512 96.8513C553.453 96.8513 549.894 95.6841 549.894 89.9035V74.2852H546.446V70.1167H549.894V59.8341L554.899 59.2783V70.1167H559.235V74.2852H554.899V89.9035C554.899 91.7934 555.9 92.3491 557.012 92.3491C558.292 92.3491 559.235 91.9602 560.181 91.5154L560.848 95.9619Z" fill="black"/>
<path d="M568.355 65.1147C566.242 65.1147 565.075 64.0031 565.075 62.0021C565.075 59.89 566.242 58.834 568.355 58.834C570.414 58.834 571.636 59.89 571.636 62.0021C571.636 64.1142 570.414 65.1147 568.355 65.1147ZM570.859 70.117V96.5737H565.854V70.117H570.859Z" fill="black"/>
</g>
<defs>
<clipPath id="clip0">
<rect width="760.678" height="120" fill="white" transform="translate(0 46)"/>
</clipPath>
</defs>
</svg>
