<svg width="940" height="212" viewBox="0 0 940 212" fill="none" xmlns="http://www.w3.org/2000/svg">
<g clip-path="url(#clip0)">
<path d="M102.105 143.553V148.308H88.6795V165.76H83.6826V127.786H104.212V132.54H88.6795V143.553H102.105Z" fill="black"/>
<path d="M120.045 163.533C119.263 164.435 117.577 166 114.025 166C108.607 166 105.536 163.172 105.536 157.996C105.536 152.7 109.209 149.811 114.145 149.811C116.794 149.811 119.022 150.835 119.985 151.858V148.789C119.985 145.779 117.998 144.696 115.349 144.696C112.399 144.696 109.75 145.659 108.366 146.201L107.824 141.868C109.329 141.266 111.857 140.363 115.891 140.363C121.55 140.363 124.741 143.312 124.741 148.789V165.699H119.985V163.533H120.045ZM120.045 157.274C120.045 155.348 117.697 154.024 115.169 154.024C112.7 154.024 110.593 155.047 110.593 158.056C110.593 160.764 112.881 161.727 115.169 161.727C117.878 161.727 120.045 159.922 120.045 158.177V157.274Z" fill="black"/>
<path d="M136.902 165.76H132.146V127.786H136.902V150.655L145.09 140.725H151.17L141.959 151.257L152.615 165.76H146.595L136.902 152.219V165.76Z" fill="black"/>
<path d="M169.833 163.352C168.99 164.435 167.485 166 163.813 166C158.936 166 155.746 162.69 155.746 157.093V140.664H160.502V156.973C160.502 159.801 161.826 161.787 164.596 161.787C168.027 161.787 169.833 159.26 169.833 156.431V140.724H174.589V165.759H169.833V163.352Z" fill="black"/>
<path d="M186.751 127.786H181.995V165.7H186.751V127.786Z" fill="black"/>
<path d="M205.112 165.157C204.27 165.579 203.186 166 201.019 166C198.129 166 194.757 164.917 194.757 159.44V144.636H191.446V140.664H194.697V130.915L199.453 130.373V140.664H203.547V144.636H199.453V159.44C199.453 161.246 200.417 161.727 201.44 161.727C202.644 161.727 203.547 161.366 204.45 160.945L205.112 165.157Z" fill="black"/>
<path d="M222.691 163.533C221.909 164.435 220.224 166 216.672 166C211.253 166 208.183 163.172 208.183 157.996C208.183 152.7 211.855 149.811 216.792 149.811C219.441 149.811 221.669 150.835 222.631 151.858V148.789C222.631 145.779 220.645 144.696 217.996 144.696C215.046 144.696 212.397 145.659 211.013 146.201L210.471 141.868C211.976 141.266 214.504 140.363 218.538 140.363C224.198 140.363 227.389 143.312 227.389 148.789V165.699H222.631V163.533H222.691ZM222.691 157.274C222.691 155.348 220.344 154.024 217.816 154.024C215.347 154.024 213.24 155.047 213.24 158.056C213.24 160.764 215.528 161.727 217.816 161.727C220.525 161.727 222.691 159.922 222.691 158.177V157.274Z" fill="black"/>
<path d="M260.982 149.451C260.982 146.623 259.416 144.637 256.587 144.637C253.336 144.637 251.649 146.623 251.649 149.451V165.7H246.893V127.786H251.649V142.771C252.553 141.748 254.36 140.424 257.369 140.424C262.247 140.424 265.678 143.734 265.678 149.331V165.76H260.922V149.451H260.982Z" fill="black"/>
<path d="M287.169 163.352C286.326 164.435 284.822 166 281.149 166C276.213 166 273.082 162.69 273.082 157.093V140.664H277.838V156.973C277.838 159.801 279.162 161.787 281.931 161.787C285.364 161.787 287.109 159.26 287.109 156.431V140.724H291.866V165.759H287.169V163.352Z" fill="black"/>
<path d="M327.384 149.45C327.384 146.622 325.82 144.636 322.991 144.636C319.74 144.636 318.053 146.622 318.053 149.45V165.699H313.298V149.39C313.298 146.562 311.733 144.576 308.902 144.576C305.651 144.576 303.967 146.562 303.967 149.39V165.639H299.271V140.604H303.967V142.71C304.869 141.687 306.735 140.363 309.687 140.363C312.815 140.363 315.284 141.687 316.669 144.034C317.993 142.169 320.282 140.363 323.713 140.363C328.589 140.363 332.022 143.673 332.022 149.27V165.699H327.264V149.45H327.384Z" fill="black"/>
<path d="M352.431 163.533C351.647 164.435 349.962 166 346.409 166C340.991 166 337.922 163.172 337.922 157.996C337.922 152.7 341.593 149.811 346.531 149.811C349.18 149.811 351.407 150.835 352.369 151.858V148.789C352.369 145.779 350.382 144.696 347.733 144.696C344.784 144.696 342.195 145.659 340.751 146.201L340.209 141.868C341.713 141.266 344.242 140.363 348.275 140.363C353.935 140.363 357.127 143.312 357.127 148.789V165.699H352.369V163.533H352.431ZM352.431 157.274C352.431 155.348 350.082 154.024 347.553 154.024C345.084 154.024 342.978 155.047 342.978 158.056C342.978 160.764 345.267 161.727 347.553 161.727C350.322 161.727 352.431 159.922 352.431 158.177V157.274Z" fill="black"/>
<path d="M378.618 149.45C378.618 146.622 377.053 144.636 374.284 144.636C371.033 144.636 369.347 146.622 369.347 149.45V165.699H364.591V140.664H369.347V142.77C370.251 141.747 372.056 140.423 375.067 140.423C379.942 140.423 383.375 143.733 383.375 149.33V165.759H378.618V149.45Z" fill="black"/>
<path d="M393.127 135.971C391.14 135.971 389.998 134.887 389.998 133.022C389.998 131.036 391.08 130.013 393.127 130.013C395.053 130.013 396.258 131.036 396.258 133.022C396.198 135.008 395.053 135.971 393.127 135.971ZM395.476 165.76H390.72V140.725H395.476V165.76Z" fill="black"/>
<path d="M414.86 165.157C414.018 165.579 412.933 166 410.766 166C407.878 166 404.506 164.917 404.506 159.44V144.636H401.255V140.664H404.506V130.915L409.262 130.373V140.664H413.355V144.636H409.262V159.44C409.262 161.246 410.224 161.727 411.249 161.727C412.453 161.727 413.355 161.366 414.258 160.945L414.86 165.157Z" fill="black"/>
<path d="M433.705 149.45C433.705 146.622 432.14 144.636 429.309 144.636C426.058 144.636 424.373 146.622 424.373 149.45V165.699H419.618V140.664H424.373V142.77C425.276 141.747 427.082 140.423 430.093 140.423C434.969 140.423 438.4 143.733 438.4 149.33V165.759H433.645V149.45H433.705Z" fill="black"/>
<path d="M448.996 128.869H454.293L449.358 137.174H445.625L448.996 128.869ZM450.562 165.76H445.865V140.725H450.562V165.76Z" fill="black"/>
<path d="M473.92 164.375C473.018 164.856 470.127 166 467.478 166C462.782 166 456.822 163.592 456.822 153.181C456.822 143.191 462.842 140.423 467.478 140.423C470.309 140.423 472.776 141.566 473.92 142.168L472.898 146.441C471.693 145.779 469.527 144.756 467.538 144.756C464.709 144.756 461.88 147.283 461.88 153.181C461.88 159.259 464.649 161.546 467.538 161.546C469.647 161.546 471.693 160.523 472.898 159.801L473.92 164.375Z" fill="black"/>
<path d="M493.244 149.451C493.244 146.623 491.68 144.637 488.851 144.637C485.6 144.637 483.913 146.623 483.913 149.451V165.7H479.218V127.786H483.973V142.771C484.878 141.748 486.684 140.424 489.693 140.424C494.569 140.424 498.002 143.734 498.002 149.331V165.76H493.244V149.451Z" fill="black"/>
<path d="M524.191 166C520.218 166 517.507 164.916 516.002 164.194L516.845 159.741C518.831 160.704 521.36 161.546 524.191 161.546C526.418 161.546 528.525 160.944 528.525 158.658C528.525 156.371 526.118 155.829 523.407 155.107C519.916 154.204 515.942 153.121 515.942 147.885C515.942 142.83 519.493 140.423 525.333 140.423C528.827 140.423 531.294 141.205 532.98 141.867L532.198 146.32C530.271 145.418 528.345 144.636 525.456 144.636C522.625 144.636 520.88 145.598 520.88 147.825C520.88 149.63 522.927 150.172 525.333 150.894C529.007 151.917 533.582 153.061 533.582 158.537C533.582 163.352 530.814 166 524.191 166Z" fill="black"/>
<path d="M550.378 165.157C549.536 165.579 548.451 166 546.285 166C543.396 166 540.025 164.917 540.025 159.44V144.636H536.773V140.664H540.025V130.915L544.78 130.373V140.664H548.873V144.636H544.78V159.44C544.78 161.246 545.742 161.727 546.767 161.727C547.971 161.727 548.873 161.366 549.776 160.945L550.378 165.157Z" fill="black"/>
<path d="M569.162 163.352C568.32 164.435 566.813 166 563.142 166C558.264 166 555.075 162.69 555.075 157.093V140.664H559.891V156.973C559.891 159.801 561.215 161.787 563.984 161.787C567.415 161.787 569.222 159.26 569.222 156.431V140.724H573.978V165.759H569.222V163.352H569.162Z" fill="black"/>
<path d="M596.796 163.353C596.073 164.256 594.087 166.061 590.293 166.061C585.718 166.061 580.3 162.992 580.3 153.484C580.3 144.517 585.418 140.484 590.776 140.484C594.749 140.484 596.133 141.929 596.856 142.771V127.847H601.611V165.76H596.856V163.353H596.796ZM596.796 150.354C596.796 146.382 594.327 144.637 591.256 144.637C588.307 144.637 585.236 147.285 585.236 153.423C585.236 159.502 587.824 161.548 590.956 161.548C594.087 161.548 596.736 159.682 596.736 155.65V150.354H596.796Z" fill="black"/>
<path d="M611.304 135.971C609.318 135.971 608.173 134.887 608.173 133.022C608.173 131.036 609.258 130.013 611.304 130.013C613.231 130.013 614.436 131.036 614.436 133.022C614.376 135.008 613.231 135.971 611.304 135.971ZM613.651 165.76H608.896V140.725H613.651V165.76Z" fill="black"/>
<path d="M625.813 128.869H631.111L626.176 137.174H622.442L625.813 128.869ZM627.318 165.76H622.622V140.725H627.318V165.76Z" fill="black"/>
<path d="M41.1435 46.1667L-0.00518445 60.0066V46H41.1435V46.1667ZM0.161635 62.1188C0.161635 64.1197 3.44242 65.9539 7.33486 65.9539C8.78063 65.9539 10.1708 65.676 11.3385 65.2869C12.5619 64.8978 50.8192 51.5026 50.8192 51.5026V106.473C50.8192 106.473 12.2838 119.924 11.2273 120.313C10.1152 120.702 8.5026 120.98 7.22366 120.98C3.27559 120.98 -0.060791 118.979 -0.060791 115.422V62.1188H0.161635Z" fill="#943F07"/>
<path d="M110.774 85.7792C110.774 95.6488 106.981 101.065 97.3487 101.065C87.7163 101.065 83.7429 95.6488 83.7429 85.7792V57.374H89.4623V85.5386C89.4623 92.2186 91.3285 95.6488 97.3487 95.6488C103.369 95.6488 105.055 92.2186 105.055 85.5386V57.374H110.774V85.7792Z" fill="black"/>
<path d="M135.277 82.1092C135.277 78.8595 133.471 76.6328 130.28 76.6328C126.547 76.6328 124.621 78.9197 124.621 82.1695V100.765H119.202V72.1192H124.621V74.5266C125.644 73.323 127.751 71.8184 131.183 71.8184C136.782 71.8184 140.695 75.6097 140.695 81.9888V100.765H135.277V82.1092Z" fill="black"/>
<path d="M151.833 66.7027C149.545 66.7027 148.281 65.4991 148.281 63.3326C148.281 61.0458 149.545 59.9023 151.833 59.9023C154.06 59.9023 155.385 61.0458 155.385 63.3326C155.385 65.6195 154.06 66.7027 151.833 66.7027ZM154.542 100.765H149.124V72.1191H154.542V100.765Z" fill="black"/>
<path d="M158.756 72.1182H164.776L171.88 93.5424L178.924 72.1182H184.944L174.469 100.704H169.231L158.756 72.1182Z" fill="black"/>
<path d="M191.988 88.6088C192.59 93.8446 195.6 95.9508 199.273 95.9508C203.427 95.9508 205.895 94.9277 208.002 93.8446L208.966 99.0801C206.377 100.284 203.728 101.066 199.213 101.066C191.988 101.066 186.148 96.6128 186.148 86.683C186.148 76.9939 191.567 71.8184 198.37 71.8184C206.136 71.8184 210.41 77.355 210.41 85.7201V88.6088H191.988ZM204.691 84.2757C204.691 79.2808 202.223 76.6328 198.37 76.6328C195.42 76.6328 192.59 78.3179 191.988 84.2757H204.691Z" fill="black"/>
<path d="M229.615 78.0772C228.953 77.7764 227.749 77.355 226.244 77.355C223.955 77.355 222.451 79.2206 222.451 82.1695V100.765H217.033V72.1192H222.451V75.369C223.353 73.5035 224.8 71.8184 227.689 71.8184C228.773 71.8184 229.795 72.1192 230.338 72.3601L229.615 78.0772Z" fill="black"/>
<path d="M254.058 100.704H232.747L246.411 76.6317H233.349V72.1182H254.72L241.655 95.9497H254.058V100.704Z" fill="black"/>
<path d="M262.847 66.7027C260.56 66.7027 259.295 65.4991 259.295 63.3326C259.295 61.0458 260.56 59.9023 262.847 59.9023C265.075 59.9023 266.4 61.0458 266.4 63.3326C266.4 65.6195 265.075 66.7027 262.847 66.7027ZM265.558 100.765H260.138V72.1191H265.558V100.765Z" fill="black"/>
<path d="M287.771 100.102C286.809 100.583 285.544 101.065 283.075 101.065C279.764 101.065 275.911 99.8011 275.911 93.5422V76.6315H272.18V72.118H275.911V60.9846L281.329 60.3828V72.118H286.027V76.6315H281.329V93.5422C281.329 95.5884 282.413 96.1902 283.618 96.1902C285.002 96.1902 286.027 95.7689 287.049 95.2875L287.771 100.102Z" fill="black"/>
<path d="M307.94 98.1775C307.038 99.2608 305.111 101.006 301.078 101.006C294.876 101.006 291.385 97.7561 291.385 91.8586C291.385 85.7804 295.598 82.5306 301.258 82.5306C304.267 82.5306 306.796 83.6739 307.94 84.8777V81.4472C307.94 78.017 305.651 76.7532 302.642 76.7532C299.271 76.7532 296.26 77.8364 294.636 78.4984L294.033 73.5637C295.778 72.9017 298.609 71.8184 303.245 71.8184C309.687 71.8184 313.358 75.1886 313.358 81.4472V100.765H307.94V98.1775ZM307.94 91.0761C307.94 88.8495 305.231 87.345 302.34 87.345C299.511 87.345 297.102 88.5486 297.102 91.9188C297.102 94.9879 299.691 96.1313 302.34 96.1313C305.471 96.1313 307.94 94.0852 307.94 92.039V91.0761Z" fill="black"/>
<path d="M343.76 100.704V62.7903H333.224V57.374H360.015V62.7903H349.48V100.704H343.76Z" fill="black"/>
<path d="M370.973 101.006C363.989 101.006 357.909 96.9736 357.909 86.3818C357.909 75.79 364.229 71.7578 370.973 71.7578C377.775 71.7578 384.038 75.79 384.038 86.3818C384.038 97.0336 377.895 101.006 370.973 101.006ZM370.973 76.6325C366.698 76.6325 363.629 80.0025 363.629 86.4418C363.629 92.6405 366.818 95.9505 370.973 95.9505C375.186 95.9505 378.318 92.6405 378.318 86.4418C378.318 80.0025 375.246 76.6325 370.973 76.6325Z" fill="black"/>
<path d="M422.807 82.1092C422.807 78.8595 421.002 76.6328 417.811 76.6328C414.078 76.6328 412.151 78.9197 412.151 82.1695V100.765H406.733V82.1092C406.733 78.8595 404.927 76.6328 401.735 76.6328C398.004 76.6328 396.078 78.9197 396.078 82.1695V100.765H390.66V72.1192H396.078V74.5266C397.1 73.323 399.209 71.8184 402.64 71.8184C406.191 71.8184 409.022 73.323 410.647 76.031C412.151 73.8646 414.8 71.8184 418.713 71.8184C424.313 71.8184 428.227 75.6097 428.227 81.9888V100.765H422.807V82.1092Z" fill="black"/>
<path d="M451.405 98.1769C450.502 99.2 448.576 101.005 444.54 101.005C438.34 101.005 434.849 97.7555 434.849 91.858C434.849 85.7798 439.062 82.53 444.722 82.53C447.731 82.53 450.26 83.6733 451.405 84.8771V81.4467C451.405 78.0164 449.116 76.7527 446.107 76.7527C442.736 76.7527 439.725 77.836 438.1 78.4978L437.498 73.5631C439.242 72.9011 442.074 71.8178 446.709 71.8178C453.151 71.8178 456.822 75.188 456.822 81.4467V100.765H451.405V98.1769ZM451.405 91.0755C451.405 88.8489 448.696 87.3444 445.805 87.3444C442.976 87.3444 440.567 88.548 440.567 91.9182C440.567 94.9873 443.156 96.1309 445.805 96.1309C448.936 96.1309 451.405 94.0847 451.405 92.0384V91.0755ZM447.731 58.5781H453.814L448.154 68.0866H443.878L447.731 58.5781Z" fill="black"/>
<path d="M472.898 101.005C468.382 101.005 465.251 99.7415 463.504 98.9593L464.469 93.844C466.755 94.9271 469.647 95.89 472.898 95.89C475.424 95.89 477.833 95.168 477.833 92.5802C477.833 89.9924 475.064 89.3304 471.993 88.548C468.02 87.5249 463.444 86.2611 463.444 80.3033C463.444 74.526 467.478 71.7575 474.222 71.7575C478.195 71.7575 481.024 72.6604 482.951 73.4427L482.047 78.4978C479.82 77.4749 477.653 76.572 474.342 76.572C471.091 76.572 469.104 77.6553 469.104 80.2431C469.104 82.2893 471.451 82.9513 474.222 83.7335C478.435 84.8771 483.673 86.2009 483.673 92.4598C483.673 97.9362 480.482 101.005 472.898 101.005ZM465.071 58.5781H469.887L473.56 63.9342L477.231 58.5781H482.047L476.449 68.0866H470.669L465.071 58.5781Z" fill="black"/>
<path d="M494.329 88.6088C494.931 93.8446 497.942 95.9508 501.613 95.9508C505.769 95.9508 508.236 94.9277 510.345 93.8446L511.307 99.0801C508.718 100.284 506.069 101.066 501.553 101.066C494.329 101.066 488.489 96.6128 488.489 86.683C488.489 76.9939 493.909 71.8184 500.711 71.8184C508.478 71.8184 512.751 77.355 512.751 85.7201V88.6088H494.329ZM507.033 84.2757C507.033 79.2808 504.565 76.6328 500.711 76.6328C497.76 76.6328 494.931 78.3179 494.329 84.2757H507.033Z" fill="black"/>
<path d="M545.262 100.704H533.22V57.374H546.164C554.171 57.374 558.867 61.7672 558.867 68.9288C558.867 73.8634 556.278 76.5717 552.667 78.3168C556.58 79.9417 559.169 83.673 559.169 88.3068C559.169 96.1303 553.811 100.704 545.262 100.704ZM546.224 62.7903H538.94V75.669H545.442C549.898 75.669 552.847 73.5023 552.847 69.2297C552.847 64.8364 550.078 62.7903 546.224 62.7903ZM545.442 81.0852H538.94V95.3479H545.442C549.958 95.3479 553.149 92.8806 553.149 88.4272C553.149 83.7932 549.898 81.0852 545.442 81.0852Z" fill="black"/>
<path d="M581.142 98.1775C580.24 99.2006 578.313 101.006 574.28 101.006C568.078 101.006 564.587 97.7561 564.587 91.8586C564.587 85.7804 568.8 82.5306 574.46 82.5306C577.469 82.5306 579.998 83.6739 581.142 84.8777V81.4472C581.142 78.017 578.856 76.7532 575.844 76.7532C572.473 76.7532 569.462 77.8364 567.838 78.4984L567.236 73.5637C568.982 72.9017 571.811 71.8184 576.447 71.8184C582.889 71.8184 586.56 75.1886 586.56 81.4472V100.765H581.142V98.1775ZM581.142 91.0761C581.142 88.8495 578.433 87.345 575.544 87.345C572.713 87.345 570.307 88.5486 570.307 91.9188C570.307 94.9879 572.896 96.1313 575.544 96.1313C578.673 96.1313 581.142 94.0852 581.142 92.039V91.0761Z" fill="black"/>
<path d="M607.571 100.102C606.609 100.583 605.344 101.065 602.876 101.065C599.564 101.065 595.711 99.8011 595.711 93.5422V76.6315H591.98V72.118H595.711V60.9846L601.131 60.3828V72.118H605.827V76.6315H601.131V93.5422C601.131 95.5884 602.213 96.1902 603.418 96.1902C604.802 96.1902 605.827 95.7689 606.849 95.2875L607.571 100.102Z" fill="black"/>
<path d="M615.7 66.7027C613.411 66.7027 612.147 65.4991 612.147 63.3326C612.147 61.0458 613.411 59.9023 615.7 59.9023C617.927 59.9023 619.251 61.0458 619.251 63.3326C619.251 65.6195 617.927 66.7027 615.7 66.7027ZM618.409 100.765H612.989V72.1191H618.409V100.765Z" fill="black"/>
</g>
<defs>
<clipPath id="clip0">
<rect width="631.111" height="120" fill="white" transform="translate(0 46)"/>
</clipPath>
</defs>
</svg>
