<svg width="940" height="212" viewBox="0 0 940 212" fill="none" xmlns="http://www.w3.org/2000/svg">
<g clip-path="url(#clip0)">
<path d="M94.1269 136.098V140.489H81.7504V156.607H77.144V121.591H96.0693V125.982H81.7504V136.153H94.1269V136.098Z" fill="black"/>
<path d="M110.666 154.551C109.944 155.385 108.39 156.83 105.116 156.83C100.121 156.83 97.2903 154.218 97.2903 149.438C97.2903 144.546 100.676 141.879 105.227 141.879C107.669 141.879 109.667 142.823 110.61 143.768V140.934C110.61 138.155 108.779 137.154 106.337 137.154C103.617 137.154 101.175 138.043 99.8988 138.544L99.3994 134.542C100.787 133.986 103.062 133.152 106.836 133.152C112.053 133.152 114.995 135.876 114.995 140.934V156.552H110.61V154.551H110.666ZM110.666 148.771C110.666 146.992 108.501 145.769 106.17 145.769C103.895 145.769 101.952 146.714 101.952 149.438C101.952 151.939 104.061 152.828 106.17 152.828C108.668 152.828 110.666 151.16 110.666 149.549V148.771Z" fill="black"/>
<path d="M126.206 156.607H121.821V121.591H126.206V142.656L133.754 133.485H139.359L130.867 143.268L140.691 156.607H135.141L126.206 144.101V156.607Z" fill="black"/>
<path d="M156.564 154.384C155.787 155.384 154.455 156.829 151.014 156.829C146.518 156.829 143.577 153.772 143.577 148.603V133.43H147.961V148.492C147.961 151.104 149.182 152.939 151.735 152.939C154.899 152.939 156.564 150.604 156.564 147.992V133.485H160.948V156.607H156.564V154.384Z" fill="black"/>
<path d="M172.103 121.536V156.552H167.719V121.536H172.103Z" fill="black"/>
<path d="M189.031 156.052C188.254 156.441 187.255 156.83 185.257 156.83C182.593 156.83 179.485 155.829 179.485 150.772V137.099H176.488V133.43H179.485V124.426L183.869 123.926V133.43H187.643V137.099H183.869V150.772C183.869 152.439 184.757 152.884 185.701 152.884C186.811 152.884 187.643 152.55 188.476 152.161L189.031 156.052Z" fill="black"/>
<path d="M205.291 154.551C204.571 155.385 203.017 156.83 199.742 156.83C194.747 156.83 191.917 154.218 191.917 149.438C191.917 144.546 195.302 141.879 199.853 141.879C202.295 141.879 204.293 142.823 205.237 143.768V140.934C205.237 138.155 203.406 137.154 200.963 137.154C198.244 137.154 195.802 138.043 194.525 138.544L194.026 134.542C195.413 133.986 197.744 133.152 201.463 133.152C206.681 133.152 209.622 135.876 209.622 140.934V156.552H205.237V154.551H205.291ZM205.291 148.771C205.291 146.992 203.128 145.769 200.797 145.769C198.521 145.769 196.579 146.714 196.579 149.438C196.579 151.939 198.688 152.828 200.797 152.828C203.294 152.828 205.291 151.16 205.291 149.549V148.771Z" fill="black"/>
<path d="M232.043 121.536V156.552H227.658V121.536H232.043Z" fill="black"/>
<path d="M247.916 156.83C242.31 156.83 237.37 153.551 237.37 144.991C237.37 136.432 242.477 133.208 247.916 133.208C253.409 133.208 258.46 136.487 258.46 144.991C258.405 153.606 253.466 156.83 247.916 156.83ZM247.916 137.099C244.475 137.099 241.977 139.822 241.977 144.991C241.977 149.994 244.529 152.661 247.916 152.661C251.3 152.661 253.855 149.994 253.855 144.991C253.798 139.822 251.357 137.099 247.916 137.099Z" fill="black"/>
<path d="M282.437 156.33C282.437 163.388 278.386 166.001 272.945 166.001C269.172 166.001 266.453 164.889 265.342 164.333L266.119 160.22C267.506 160.776 269.782 161.888 272.89 161.888C275.776 161.888 278.052 159.887 278.052 156.607V153.717C277.385 154.551 275.5 156.33 272.058 156.33C267.84 156.33 262.845 153.439 262.845 144.936C262.845 136.654 267.563 133.152 272.502 133.152C276.165 133.152 277.385 134.486 278.107 135.264V133.375H282.492V156.33H282.437ZM278.052 142.379C278.052 138.71 275.776 137.099 272.945 137.099C270.226 137.099 267.397 139.266 267.397 144.991C267.397 150.327 269.782 152.217 272.668 152.217C275.555 152.217 277.997 150.494 277.997 146.77V142.379H278.052Z" fill="black"/>
<path d="M291.427 129.094C289.597 129.094 288.541 128.15 288.541 126.371C288.541 124.537 289.54 123.592 291.427 123.592C293.203 123.592 294.313 124.537 294.313 126.371C294.258 128.205 293.203 129.094 291.427 129.094ZM293.591 133.485V156.607H289.208V133.485H293.591Z" fill="black"/>
<path d="M306.523 156.83C302.86 156.83 300.362 155.83 298.975 155.163L299.752 151.05C301.584 151.939 303.915 152.717 306.523 152.717C308.577 152.717 310.519 152.161 310.519 150.049C310.519 147.937 308.298 147.437 305.801 146.77C302.583 145.936 298.92 144.936 298.92 140.1C298.92 135.431 302.195 133.208 307.633 133.208C310.853 133.208 313.127 133.931 314.681 134.542L313.961 138.599C312.183 137.766 310.407 137.043 307.745 137.043C305.136 137.043 303.527 137.932 303.527 139.989C303.527 141.656 305.412 142.157 307.633 142.824C311.018 143.768 315.236 144.824 315.236 149.882C315.236 154.385 312.683 156.83 306.523 156.83Z" fill="black"/>
<path d="M330.72 156.052C329.943 156.441 328.944 156.83 326.947 156.83C324.283 156.83 321.175 155.829 321.175 150.772V137.099H318.179V133.43H321.175V124.426L325.56 123.926V133.43H329.333V137.099H325.56V150.772C325.56 152.439 326.447 152.884 327.39 152.884C328.501 152.884 329.333 152.55 330.167 152.161L330.72 156.052Z" fill="black"/>
<path d="M337.269 129.094C335.439 129.094 334.383 128.15 334.383 126.371C334.383 124.537 335.384 123.592 337.269 123.592C339.045 123.592 340.155 124.537 340.155 126.371C340.155 128.205 339.045 129.094 337.269 129.094ZM339.435 133.485V156.607H335.05V133.485H339.435Z" fill="black"/>
<path d="M350.646 156.607H346.261V121.591H350.646V142.656L358.194 133.485H363.799L355.308 143.268L365.129 156.607H359.581L350.646 144.101V156.607Z" fill="black"/>
<path d="M373.899 166V152.883L365.186 133.43H370.015L376.064 148.048L382.112 133.43H386.941L378.228 152.883V166H373.899Z" fill="black"/>
<path d="M413.414 154.551C412.694 155.385 411.14 156.83 407.866 156.83C402.87 156.83 400.039 154.218 400.039 149.438C400.039 144.546 403.426 141.879 407.976 141.879C410.418 141.879 412.416 142.823 413.359 143.768V140.934C413.359 138.155 411.529 137.154 409.086 137.154C406.367 137.154 403.924 138.043 402.649 138.544L402.148 134.542C403.536 133.986 405.866 133.152 409.586 133.152C414.803 133.152 417.744 135.876 417.744 140.934V156.552H413.359V154.551H413.414ZM413.414 148.771C413.414 146.992 411.25 145.769 408.919 145.769C406.643 145.769 404.701 146.714 404.701 149.438C404.701 151.939 406.81 152.828 408.919 152.828C411.417 152.828 413.414 151.16 413.414 149.549V148.771Z" fill="black"/>
<path d="M440.166 156.607H435.781V121.591H440.166V142.656L447.714 133.485H453.319L444.828 143.268L454.651 156.607H449.101L440.166 144.101V156.607Z" fill="black"/>
<path d="M468.193 138.266C467.638 138.043 466.694 137.654 465.474 137.654C463.641 137.654 462.421 139.155 462.421 141.545V156.552H458.036V133.43H462.421V136.043C463.143 134.542 464.308 133.152 466.639 133.152C467.526 133.152 468.36 133.375 468.748 133.597L468.193 138.266Z" fill="black"/>
<path d="M475.352 129.094C473.52 129.094 472.466 128.15 472.466 126.371C472.466 124.537 473.465 123.592 475.352 123.592C477.128 123.592 478.239 124.537 478.239 126.371C478.239 128.205 477.128 129.094 475.352 129.094ZM477.516 133.485V156.607H473.131V133.485H477.516Z" fill="black"/>
<path d="M499.106 156.607H481.957L492.946 137.098H482.4V133.43H499.605L489.061 152.661H499.049V156.607H499.106Z" fill="black"/>
<path d="M512.593 156.83C506.988 156.83 502.047 153.551 502.047 144.991C502.047 136.432 507.152 133.208 512.593 133.208C518.087 133.208 523.137 136.487 523.137 144.991C523.137 153.606 518.142 156.83 512.593 156.83ZM512.593 137.099C509.152 137.099 506.654 139.822 506.654 144.991C506.654 149.994 509.207 152.661 512.593 152.661C515.978 152.661 518.53 149.994 518.53 144.991C518.475 139.822 516.032 137.099 512.593 137.099Z" fill="black"/>
<path d="M524.081 133.485H528.909L534.626 150.771L540.287 133.485H545.17L536.733 156.607H532.517L524.081 133.485Z" fill="black"/>
<path d="M550.887 146.769C551.386 150.993 553.773 152.716 556.769 152.716C560.099 152.716 562.098 151.882 563.819 150.993L564.596 155.217C562.487 156.162 560.378 156.829 556.714 156.829C550.887 156.829 546.169 153.216 546.169 145.212C546.169 137.375 550.554 133.207 556.047 133.207C562.32 133.207 565.761 137.653 565.761 144.434V146.769H550.887ZM561.154 143.267C561.154 139.209 559.157 137.097 556.047 137.097C553.662 137.097 551.386 138.431 550.887 143.267H561.154ZM556.769 122.535H561.653L557.103 130.205H553.662L556.769 122.535Z" fill="black"/>
<path d="M584.02 141.545C584.02 138.933 582.578 137.099 579.968 137.099C576.972 137.099 575.418 138.933 575.418 141.545V156.552H571.033V121.536H575.418V135.376C576.25 134.431 577.916 133.208 580.69 133.208C585.185 133.208 588.35 136.265 588.35 141.434V156.608H583.965V141.545H584.02Z" fill="black"/>
<path d="M604.277 156.83C598.672 156.83 593.731 153.551 593.731 144.991C593.731 136.432 598.839 133.208 604.277 133.208C609.771 133.208 614.823 136.487 614.823 144.991C614.823 153.606 609.883 156.83 604.277 156.83ZM604.277 137.099C600.836 137.099 598.338 139.822 598.338 144.991C598.338 149.994 600.893 152.661 604.277 152.661C607.664 152.661 610.216 149.994 610.216 144.991C610.216 139.822 607.719 137.099 604.277 137.099Z" fill="black"/>
<path d="M630.028 122.535H633.913L636.856 126.87L639.797 122.535H643.682L639.187 130.205H634.525L630.028 122.535ZM641.461 138.265C640.908 138.042 639.964 137.653 638.741 137.653C636.911 137.653 635.691 139.154 635.691 141.544V156.551H631.306V133.429H635.691V136.041C636.411 134.541 637.576 133.151 639.907 133.151C640.796 133.151 641.628 133.373 642.016 133.596L641.461 138.265Z" fill="black"/>
<path d="M649.399 122.535H654.283L649.731 130.205H646.29L649.399 122.535ZM650.786 133.485V156.606H646.401V133.485H650.786Z" fill="black"/>
<path d="M672.319 156.607H655.169L666.159 137.098H655.615V133.43H672.82L662.274 152.661H672.264V156.607H672.319Z" fill="black"/>
<path d="M680.034 146.77C680.534 150.994 682.92 152.717 685.916 152.717C689.247 152.717 691.245 151.883 692.965 150.994L693.742 155.218C691.633 156.163 689.524 156.83 685.861 156.83C680.034 156.83 675.317 153.217 675.317 145.213C675.317 137.377 679.7 133.208 685.196 133.208C691.466 133.208 694.908 137.655 694.908 144.435V146.77H680.034ZM690.246 143.268C690.246 139.211 688.249 137.099 685.139 137.099C682.753 137.099 680.477 138.433 679.979 143.268H690.246Z" fill="black"/>
<path d="M713.168 141.545C713.168 138.933 711.724 137.099 709.116 137.099C706.118 137.099 704.565 138.933 704.565 141.545V156.552H700.179V133.43H704.565V135.376C705.396 134.431 707.117 133.208 709.836 133.208C714.333 133.208 717.496 136.265 717.496 141.434V156.608H713.111V141.545H713.168Z" fill="black"/>
<path d="M727.32 122.535H732.203L727.651 130.205H724.212L727.32 122.535ZM728.707 133.485V156.606H724.322V133.485H728.707Z" fill="black"/>
<path d="M41.148 46.1667L-0.000789999 60.0065V46H41.148V46.1667ZM0.16603 62.1186C0.16603 64.1195 3.44681 65.9537 7.33928 65.9537C8.78506 65.9537 10.1752 65.6758 11.343 65.2867C12.5663 64.8976 50.8236 51.5025 50.8236 51.5025V106.472C50.8236 106.472 12.2883 119.923 11.2317 120.312C10.1196 120.701 8.50702 120.979 7.22806 120.979C3.27999 120.979 -0.0563965 118.978 -0.0563965 115.421V62.1186H0.16603Z" fill="#C9D30E"/>
<path d="M102.119 82.7393C102.119 91.8547 98.6221 96.8568 89.7423 96.8568C80.8623 96.8568 77.1995 91.8547 77.1995 82.7393V56.5049H82.4719V82.517C82.4719 88.6865 84.1924 91.8547 89.7423 91.8547C95.2922 91.8547 96.8463 88.6865 96.8463 82.517V56.5049H102.119V82.7393Z" fill="black"/>
<path d="M124.707 79.3491C124.707 76.3477 123.042 74.2912 120.101 74.2912C116.66 74.2912 114.884 76.4034 114.884 79.4049V96.5793H109.889V70.1228H114.884V72.346C115.827 71.2343 117.77 69.8447 120.933 69.8447C126.095 69.8447 129.702 73.3465 129.702 79.2381V96.5793H124.707V79.3491Z" fill="black"/>
<path d="M139.969 65.1196C137.86 65.1196 136.695 64.0079 136.695 62.007C136.695 59.8949 137.86 58.8389 139.969 58.8389C142.023 58.8389 143.244 59.8949 143.244 62.007C143.244 64.1191 142.023 65.1196 139.969 65.1196ZM142.467 70.1218V96.5786H137.472V70.1218H142.467Z" fill="black"/>
<path d="M146.352 70.123H151.902L158.451 89.9098L164.944 70.123H170.494L160.837 96.5796H156.009L146.352 70.123Z" fill="black"/>
<path d="M176.988 85.352C177.542 90.1876 180.317 92.1328 183.703 92.1328C187.532 92.1328 189.808 91.188 191.75 90.1876L192.638 95.0232C190.252 96.1347 187.81 96.8573 183.647 96.8573C176.988 96.8573 171.604 92.7442 171.604 83.5733C171.604 74.6248 176.599 69.8447 182.87 69.8447C190.03 69.8447 193.97 74.9584 193.97 82.6841V85.352H176.988ZM188.698 81.3501C188.698 76.7368 186.422 74.2912 182.87 74.2912C180.151 74.2912 177.542 75.8476 176.988 81.3501H188.698Z" fill="black"/>
<path d="M211.674 75.6253C211.063 75.3474 209.953 74.9584 208.566 74.9584C206.457 74.9584 205.07 76.6813 205.07 79.4049V96.5793H200.075V70.1228H205.07V73.1242C205.901 71.4011 207.234 69.8447 209.898 69.8447C210.897 69.8447 211.84 70.1228 212.341 70.3451L211.674 75.6253Z" fill="black"/>
<path d="M234.207 96.5796H214.56L227.158 74.2915H215.115V70.123H234.817L222.775 92.1331H234.207V96.5796Z" fill="black"/>
<path d="M242.31 65.1196C240.201 65.1196 239.036 64.0079 239.036 62.007C239.036 59.8949 240.201 58.8389 242.31 58.8389C244.365 58.8389 245.585 59.8949 245.585 62.007C245.585 64.1191 244.365 65.1196 242.31 65.1196ZM244.808 70.1218V96.5786H239.813V70.1218H244.808Z" fill="black"/>
<path d="M265.287 95.9668C264.399 96.4116 263.233 96.8562 260.957 96.8562C257.906 96.8562 254.353 95.6889 254.353 89.9084V74.2901H250.912V70.1216H254.353V59.839L259.348 59.2832V70.1216H263.677V74.2901H259.348V89.9084C259.348 91.7983 260.347 92.354 261.458 92.354C262.735 92.354 263.677 91.9651 264.62 91.5203L265.287 95.9668Z" fill="black"/>
<path d="M283.879 94.245C283.047 95.1899 281.272 96.8573 277.552 96.8573C271.836 96.8573 268.617 93.8559 268.617 88.4089C268.617 82.7952 272.501 79.7937 277.718 79.7937C280.493 79.7937 282.826 80.8499 283.879 81.9615V78.7377C283.879 75.5697 281.77 74.4025 278.996 74.4025C275.888 74.4025 273.112 75.403 271.615 76.0144L271.059 71.4566C272.668 70.8452 275.276 69.8447 279.551 69.8447C285.488 69.8447 288.874 72.9574 288.874 78.7377V96.5793H283.879V94.245ZM283.879 87.6308C283.879 85.5743 281.381 84.1847 278.717 84.1847C276.11 84.1847 273.889 85.2965 273.889 88.4089C273.889 91.2436 276.276 92.2996 278.717 92.2996C281.603 92.2996 283.879 90.4099 283.879 88.5202V87.6308Z" fill="black"/>
<path d="M316.902 96.579V61.5072H307.19V56.5049H331.885V61.5072H322.173V96.579H316.902Z" fill="black"/>
<path d="M341.988 96.8573C335.548 96.8573 329.943 93.1333 329.943 83.351C329.943 73.5688 335.772 69.8447 341.988 69.8447C348.258 69.8447 354.03 73.5688 354.03 83.351C354.03 93.1333 348.37 96.8573 341.988 96.8573ZM341.988 74.2912C338.046 74.2912 335.217 77.4039 335.217 83.351C335.217 89.0758 338.158 92.1328 341.988 92.1328C345.872 92.1328 348.758 89.0758 348.758 83.351C348.758 77.4039 345.927 74.2912 341.988 74.2912Z" fill="black"/>
<path d="M389.772 79.3491C389.772 76.3477 388.106 74.2912 385.165 74.2912C381.724 74.2912 379.948 76.4034 379.948 79.4049V96.5793H374.953V79.3491C374.953 76.3477 373.289 74.2912 370.346 74.2912C366.907 74.2912 365.129 76.4034 365.129 79.4049V96.5793H360.136V70.1228H365.129V72.346C366.073 71.2343 368.016 69.8447 371.18 69.8447C374.455 69.8447 377.062 71.2343 378.561 73.7356C379.948 71.7346 382.391 69.8447 385.997 69.8447C391.159 69.8447 394.767 73.3465 394.767 79.2381V96.5793H389.772V79.3491Z" fill="black"/>
<path d="M416.133 94.2453C415.302 95.1901 413.526 96.8577 409.808 96.8577C404.091 96.8577 400.871 93.8562 400.871 88.4093C400.871 82.7955 404.758 79.7941 409.975 79.7941C412.749 79.7941 415.08 80.8503 416.133 81.9618V78.7381C416.133 75.5699 414.024 74.4028 411.25 74.4028C408.142 74.4028 405.368 75.4033 403.869 76.0147L403.314 71.4569C404.923 70.8455 407.532 69.845 411.805 69.845C417.744 69.845 421.129 72.9577 421.129 78.7381V96.5796H416.133V94.2453ZM416.133 87.6311C416.133 85.5746 413.636 84.185 410.973 84.185C408.364 84.185 406.145 85.2966 406.145 88.4093C406.145 91.2439 408.531 92.2999 410.973 92.2999C413.86 92.2999 416.133 90.4102 416.133 88.5203V87.6311ZM412.749 57.6172H418.354L413.138 66.399H409.198L412.749 57.6172Z" fill="black"/>
<path d="M435.948 96.8577C431.784 96.8577 428.898 95.6904 427.289 94.9678L428.178 90.2434C430.287 91.2439 432.95 92.1331 435.948 92.1331C438.278 92.1331 440.497 91.4662 440.497 89.0762C440.497 86.6861 437.945 86.0747 435.116 85.3523C431.453 84.4074 427.234 83.2401 427.234 77.7376C427.234 72.4019 430.952 69.845 437.168 69.845C440.831 69.845 443.44 70.6787 445.216 71.4014L444.384 76.0702C442.33 75.1252 440.333 74.2916 437.28 74.2916C434.282 74.2916 432.451 75.292 432.451 77.6821C432.451 79.5718 434.615 80.1831 437.168 80.9058C441.053 81.9618 445.881 83.1846 445.881 88.9651C445.881 94.023 442.94 96.8577 435.948 96.8577ZM428.733 57.6172H433.173L436.558 62.5639L439.944 57.6172H444.384L439.222 66.399H433.893L428.733 57.6172Z" fill="black"/>
<path d="M455.705 85.352C456.26 90.1876 459.034 92.1328 462.421 92.1328C466.251 92.1328 468.527 91.188 470.469 90.1876L471.356 95.0232C468.97 96.1347 466.527 96.8573 462.366 96.8573C455.705 96.8573 450.321 92.7442 450.321 83.5733C450.321 74.6248 455.317 69.8447 461.589 69.8447C468.748 69.8447 472.688 74.9584 472.688 82.6841V85.352H455.705ZM467.416 81.3501C467.416 76.7368 465.14 74.2912 461.589 74.2912C458.87 74.2912 456.26 75.8476 455.705 81.3501H467.416Z" fill="black"/>
<path d="M502.657 96.579H491.558V56.5049H503.489C510.872 56.5049 515.2 60.5623 515.2 67.1766C515.2 71.7341 512.815 74.2354 509.483 75.8473C513.091 77.3479 515.477 80.7939 515.477 85.0736C515.477 92.2993 510.539 96.579 502.657 96.579ZM503.546 61.5072H496.83V73.4015H502.824C506.931 73.4015 509.65 71.4008 509.65 67.4544C509.65 63.397 507.097 61.5072 503.546 61.5072ZM502.824 78.4039H496.83V91.5766H502.824C506.987 91.5766 509.928 89.2979 509.928 85.1849C509.928 80.9052 506.931 78.4039 502.824 78.4039Z" fill="black"/>
<path d="M535.735 94.245C534.903 95.1899 533.127 96.8573 529.409 96.8573C523.692 96.8573 520.472 93.8559 520.472 88.4089C520.472 82.7952 524.357 79.7937 529.574 79.7937C532.35 79.7937 534.681 80.8499 535.735 81.9615V78.7377C535.735 75.5697 533.626 74.4025 530.851 74.4025C527.744 74.4025 524.969 75.403 523.47 76.0144L522.915 71.4566C524.524 70.8452 527.133 69.8447 531.407 69.8447C537.346 69.8447 540.73 72.9574 540.73 78.7377V96.5793H535.735V94.245ZM535.735 87.6308C535.735 85.5743 533.237 84.1847 530.575 84.1847C527.965 84.1847 525.746 85.2965 525.746 88.4089C525.746 91.2436 528.132 92.2996 530.575 92.2996C533.461 92.2996 535.735 90.4099 535.735 88.5202V87.6308Z" fill="black"/>
<path d="M560.099 95.9668C559.212 96.4116 558.047 96.8562 555.771 96.8562C552.718 96.8562 549.167 95.6889 549.167 89.9084V74.2901H545.725V70.1216H549.167V59.839L554.162 59.2832V70.1216H558.49V74.2901H554.162V89.9084C554.162 91.7983 555.161 92.354 556.271 92.354C557.546 92.354 558.49 91.9651 559.434 91.5203L560.099 95.9668Z" fill="black"/>
<path d="M567.592 65.1196C565.483 65.1196 564.317 64.0079 564.317 62.007C564.317 59.8949 565.483 58.8389 567.592 58.8389C569.646 58.8389 570.867 59.8949 570.867 62.007C570.867 64.1191 569.646 65.1196 567.592 65.1196ZM570.09 70.1218V96.5786H565.094V70.1218H570.09Z" fill="black"/>
</g>
<defs>
<clipPath id="clip0">
<rect width="732.203" height="120" fill="white" transform="translate(0 46)"/>
</clipPath>
</defs>
</svg>
