<svg width="940" height="212" viewBox="0 0 940 212" fill="none" xmlns="http://www.w3.org/2000/svg">
<g clip-path="url(#clip0)">
<path d="M101.944 143.554V148.308H88.5394V165.76H83.5505V127.847H104.047V132.601H88.5394V143.614H101.944V143.554Z" fill="black"/>
<path d="M119.856 163.534C119.075 164.436 117.391 166.001 113.845 166.001C108.435 166.001 105.37 163.173 105.37 157.997C105.37 152.701 109.036 149.813 113.965 149.813C116.61 149.813 118.774 150.836 119.796 151.859V148.79C119.796 145.78 117.812 144.697 115.167 144.697C112.222 144.697 109.577 145.66 108.195 146.202L107.654 141.869C109.157 141.267 111.681 140.364 115.709 140.364C121.359 140.364 124.544 143.313 124.544 148.79V165.7H119.796V163.534H119.856ZM119.856 157.275C119.856 155.349 117.512 154.025 114.987 154.025C112.523 154.025 110.419 155.048 110.419 157.997C110.419 160.705 112.703 161.668 114.987 161.668C117.692 161.668 119.856 159.863 119.856 158.118V157.275Z" fill="black"/>
<path d="M136.686 165.76H131.938V127.847H136.686V150.655L144.861 140.725H150.932L141.735 151.317L152.374 165.76H146.364L136.686 152.22V165.76Z" fill="black"/>
<path d="M169.565 163.352C168.724 164.435 167.281 166 163.554 166C158.686 166 155.5 162.69 155.5 157.093V140.664H160.248V156.973C160.248 159.802 161.571 161.787 164.336 161.787C167.762 161.787 169.565 159.26 169.565 156.431V140.724H174.314V165.759H169.565V163.352Z" fill="black"/>
<path d="M186.396 127.786V165.7H181.647V127.786H186.396Z" fill="black"/>
<path d="M204.729 165.157C203.887 165.579 202.805 166 200.641 166C197.756 166 194.39 164.917 194.39 159.44V144.636H191.144V140.664H194.39V130.915L199.139 130.373V140.664H203.226V144.636H199.139V159.44C199.139 161.246 200.1 161.727 201.122 161.727C202.324 161.727 203.226 161.366 204.128 160.945L204.729 165.157Z" fill="black"/>
<path d="M222.34 163.534C221.559 164.436 219.876 166.001 216.33 166.001C210.92 166.001 207.854 163.173 207.854 157.997C207.854 152.701 211.521 149.813 216.45 149.813C219.095 149.813 221.259 150.836 222.28 151.859V148.79C222.28 145.78 220.297 144.697 217.652 144.697C214.707 144.697 212.062 145.66 210.68 146.202L210.138 141.869C211.641 141.267 214.166 140.364 218.193 140.364C223.842 140.364 227.029 143.313 227.029 148.79V165.7H222.28V163.534H222.34ZM222.34 157.275C222.34 155.349 219.996 154.025 217.472 154.025C215.007 154.025 212.904 155.048 212.904 157.997C212.904 160.705 215.188 161.668 217.472 161.668C220.177 161.668 222.34 159.863 222.34 158.118V157.275Z" fill="black"/>
<path d="M274.636 149.452C274.636 146.623 273.071 144.637 270.247 144.637C267 144.637 265.318 146.623 265.318 149.452V165.7H260.569V149.391C260.569 146.563 259.007 144.577 256.182 144.577C252.936 144.577 251.254 146.563 251.254 149.391V165.64H246.505V140.605H251.254V142.711C252.154 141.688 254.018 140.364 256.962 140.364C260.089 140.364 262.554 141.688 263.936 144.035C265.258 142.17 267.542 140.364 270.969 140.364C275.836 140.364 279.262 143.674 279.262 149.271V165.7H274.514V149.452H274.636Z" fill="black"/>
<path d="M300.782 163.352C299.94 164.435 298.498 166 294.771 166C289.902 166 286.716 162.69 286.716 157.093V140.664H291.464V156.973C291.464 159.802 292.787 161.787 295.551 161.787C298.978 161.787 300.782 159.26 300.782 156.431V140.724H305.531V165.759H300.782V163.352Z" fill="black"/>
<path d="M317.611 127.786V165.7H312.862V127.786H317.611Z" fill="black"/>
<path d="M335.945 165.157C335.105 165.579 334.022 166 331.858 166C328.973 166 325.607 164.917 325.607 159.44V144.636H322.36V140.664H325.607V130.915L330.356 130.373V140.664H334.442V144.636H330.356V159.44C330.356 161.246 331.316 161.727 332.338 161.727C333.54 161.727 334.442 161.366 335.345 160.945L335.945 165.157Z" fill="black"/>
<path d="M343.038 135.97C341.053 135.97 339.911 134.947 339.911 133.022C339.911 131.036 340.993 130.013 343.038 130.013C344.962 130.013 346.162 131.036 346.162 133.022C346.162 135.008 344.962 135.97 343.038 135.97ZM345.382 140.725V165.76H340.633V140.725H345.382Z" fill="black"/>
<path d="M380.847 149.452C380.847 146.623 379.282 144.637 376.458 144.637C373.211 144.637 371.529 146.623 371.529 149.452V165.7H366.78V149.391C366.78 146.563 365.218 144.577 362.453 144.577C359.207 144.577 357.525 146.563 357.525 149.391V165.64H352.776V140.605H357.525V142.711C358.425 141.688 360.289 140.364 363.233 140.364C366.36 140.364 368.825 141.688 370.207 144.035C371.529 142.17 373.813 140.364 377.24 140.364C382.109 140.364 385.533 143.674 385.533 149.271V165.7H380.785V149.452H380.847Z" fill="black"/>
<path d="M396.473 155.107C397.016 159.681 399.66 161.546 402.845 161.546C406.451 161.546 408.616 160.644 410.48 159.681L411.32 164.254C409.036 165.278 406.753 166 402.785 166C396.473 166 391.365 162.088 391.365 153.422C391.365 144.936 396.113 140.423 402.065 140.423C408.856 140.423 412.582 145.237 412.582 152.579V155.107H396.473ZM407.533 151.316C407.533 146.922 405.369 144.636 402.005 144.636C399.42 144.636 396.956 146.08 396.413 151.316H407.533Z" fill="black"/>
<path d="M433.8 163.353C433.08 164.256 431.036 166.061 427.309 166.061C422.74 166.061 417.331 162.992 417.331 153.484C417.331 144.517 422.44 140.484 427.791 140.484C431.758 140.484 433.08 141.929 433.862 142.771V127.847H438.609V165.76H433.862V163.353H433.8ZM433.8 150.354C433.8 146.382 431.336 144.637 428.271 144.637C425.327 144.637 422.26 147.285 422.26 153.423C422.26 159.502 424.844 161.548 427.971 161.548C431.096 161.548 433.74 159.682 433.74 155.65V150.354H433.8Z" fill="black"/>
<path d="M448.287 135.97C446.305 135.97 445.162 134.947 445.162 133.022C445.162 131.036 446.245 130.013 448.287 130.013C450.211 130.013 451.413 131.036 451.413 133.022C451.353 135.008 450.211 135.97 448.287 135.97ZM450.631 140.725V165.76H445.882V140.725H450.631Z" fill="black"/>
<path d="M470.889 163.533C470.107 164.436 468.425 166 464.878 166C459.467 166 456.403 163.172 456.403 157.996C456.403 152.7 460.069 149.812 464.998 149.812C467.643 149.812 469.807 150.835 470.827 151.858V148.789C470.827 145.78 468.845 144.696 466.2 144.696C463.254 144.696 460.609 145.659 459.227 146.201L458.687 141.868C460.189 141.266 462.654 140.364 466.74 140.364C472.391 140.364 475.576 143.312 475.576 148.789V165.7H470.827V163.533H470.889ZM470.889 157.274C470.889 155.348 468.545 154.024 466.02 154.024C463.556 154.024 461.451 155.048 461.451 157.996C461.451 160.705 463.736 161.668 466.02 161.668C468.725 161.668 470.889 159.862 470.889 158.117V157.274ZM467.643 128.869H472.931L468.003 137.174H464.276L467.643 128.869Z" fill="black"/>
<path d="M487.718 127.786V165.7H482.969V127.786H487.718Z" fill="black"/>
<path d="M509.116 149.45C509.116 146.622 507.553 144.636 504.729 144.636C501.482 144.636 499.8 146.622 499.8 149.45V165.699H495.051V140.664H499.8V142.77C500.702 141.747 502.505 140.423 505.511 140.423C510.378 140.423 513.805 143.733 513.805 149.33V165.759H509.116V149.45Z" fill="black"/>
<path d="M524.385 128.869H529.674L524.745 137.174H521.018L524.385 128.869ZM525.947 140.725V165.76H521.198V140.725H525.947Z" fill="black"/>
<path d="M549.269 164.375C548.367 164.856 545.482 166 542.838 166C538.149 166 532.198 163.592 532.198 153.181C532.198 143.191 538.209 140.423 542.838 140.423C545.662 140.423 548.127 141.566 549.269 142.168L548.247 146.441C547.045 145.839 544.88 144.756 542.898 144.756C540.074 144.756 537.247 147.284 537.247 153.181C537.247 159.26 540.011 161.546 542.898 161.546C545.002 161.546 547.045 160.523 548.247 159.801L549.269 164.375Z" fill="black"/>
<path d="M568.565 149.451C568.565 146.623 567 144.637 564.236 144.637C560.991 144.637 559.307 146.623 559.307 149.451V165.7H554.558V127.786H559.307V142.771C560.209 141.748 562.071 140.424 565.018 140.424C569.887 140.424 573.314 143.734 573.314 149.331V165.76H568.565V149.451Z" fill="black"/>
<path d="M597.476 165.76H592.727V127.847H597.476V150.655L605.652 140.725H611.723L602.525 151.317L613.165 165.76H607.154L597.476 152.22V165.76Z" fill="black"/>
<path d="M624.585 166C618.513 166 613.165 162.449 613.165 153.181C613.165 143.913 618.693 140.423 624.585 140.423C630.536 140.423 636.005 143.974 636.005 153.181C636.005 162.509 630.656 166 624.585 166ZM624.585 144.636C620.858 144.636 618.153 147.584 618.153 153.181C618.153 158.598 620.918 161.486 624.585 161.486C628.251 161.486 631.016 158.598 631.016 153.181C631.016 147.584 628.371 144.636 624.585 144.636Z" fill="black"/>
<path d="M669.907 149.452C669.907 146.623 668.342 144.637 665.518 144.637C662.273 144.637 660.589 146.623 660.589 149.452V165.7H655.84V149.391C655.84 146.563 654.278 144.577 651.513 144.577C648.267 144.577 646.584 146.563 646.584 149.391V165.64H641.835V140.605H646.584V142.711C647.487 141.688 649.349 140.364 652.293 140.364C655.42 140.364 657.884 141.688 659.267 144.035C660.589 142.17 662.873 140.364 666.3 140.364C671.169 140.364 674.596 143.674 674.596 149.271V165.7H669.847V149.452H669.907Z" fill="black"/>
<path d="M695.993 163.352C695.151 164.435 693.709 166 689.982 166C685.113 166 681.929 162.69 681.929 157.093V140.664H686.676V156.973C686.676 159.802 687.998 161.787 690.764 161.787C694.191 161.787 695.993 159.26 695.993 156.431V140.724H700.742V165.759H695.993V163.352Z" fill="black"/>
<path d="M722.14 149.45C722.14 146.622 720.578 144.636 717.814 144.636C714.567 144.636 712.885 146.622 712.885 149.45V165.699H708.136V140.664H712.885V142.77C713.785 141.747 715.649 140.423 718.594 140.423C723.463 140.423 726.889 143.733 726.889 149.33V165.759H722.14V149.45Z" fill="black"/>
<path d="M736.627 135.97C734.642 135.97 733.5 134.947 733.5 133.022C733.5 131.036 734.582 130.013 736.627 130.013C738.549 130.013 739.751 131.036 739.751 133.022C739.691 135.008 738.549 135.97 736.627 135.97ZM738.971 140.725V165.76H734.222V140.725H738.971Z" fill="black"/>
<path d="M751.053 165.76H746.304V127.847H751.053V150.655L759.227 140.725H765.298L756.102 151.317L766.74 165.76H760.729L751.053 152.22V165.76Z" fill="black"/>
<path d="M782.549 163.534C781.767 164.436 780.084 166.001 776.538 166.001C771.129 166.001 768.062 163.173 768.062 157.997C768.062 152.701 771.729 149.813 776.658 149.813C779.302 149.813 781.467 150.836 782.489 151.859V148.79C782.489 145.78 780.504 144.697 777.86 144.697C774.916 144.697 772.271 145.66 770.889 146.202L770.347 141.869C771.849 141.267 774.373 140.364 778.402 140.364C784.051 140.364 787.238 143.313 787.238 148.79V165.7H782.489V163.534H782.549ZM782.549 157.275C782.549 155.349 780.204 154.025 777.68 154.025C775.216 154.025 773.111 155.048 773.111 157.997C773.111 160.705 775.396 161.668 777.68 161.668C780.444 161.668 782.549 159.863 782.549 158.118V157.275Z" fill="black"/>
<path d="M810.62 164.375C809.718 164.856 806.833 166 804.189 166C799.5 166 793.549 163.592 793.549 153.181C793.549 143.191 799.56 140.423 804.189 140.423C807.013 140.423 809.478 141.566 810.62 142.168L809.538 146.441C808.336 145.839 806.171 144.756 804.189 144.756C801.362 144.756 798.538 147.284 798.538 153.181C798.538 159.26 801.302 161.546 804.189 161.546C806.291 161.546 808.336 160.523 809.538 159.801L810.62 164.375Z" fill="black"/>
<path d="M819.096 128.869H824.385L819.456 137.174H815.729L819.096 128.869ZM820.658 140.725V165.76H815.909V140.725H820.658Z" fill="black"/>
<path d="M41.1424 46.1667L-0.00640514 60.0066V46H41.1424V46.1667ZM0.160415 62.1188C0.160415 64.1197 3.44119 65.9539 7.33366 65.9539C8.77944 65.9539 10.1696 65.676 11.3373 65.2869C12.5607 64.8978 50.818 51.5026 50.818 51.5026V106.473C50.818 106.473 12.2827 119.924 11.2261 120.313C10.114 120.702 8.50141 120.98 7.22246 120.98C3.27439 120.98 -0.0620117 118.979 -0.0620117 115.422V62.1188H0.160415Z" fill="#E73937"/>
<path d="M110.599 85.7792C110.599 95.6488 106.812 101.065 97.195 101.065C87.5779 101.065 83.6106 95.6488 83.6106 85.7792V57.374H89.321V85.5386C89.321 92.2186 91.1844 95.6488 97.195 95.6488C103.206 95.6488 104.889 92.2186 104.889 85.5386V57.374H110.599V85.7792Z" fill="black"/>
<path d="M135.063 82.1092C135.063 78.8595 133.26 76.6328 130.074 76.6328C126.348 76.6328 124.424 78.9197 124.424 82.1695V100.765H119.014V72.1192H124.424V74.5266C125.446 73.323 127.55 71.8184 130.976 71.8184C136.566 71.8184 140.473 75.6097 140.473 81.989V100.765H135.063V82.1092Z" fill="black"/>
<path d="M151.593 66.7018C149.309 66.7018 148.046 65.4982 148.046 63.3317C148.046 61.0448 149.309 59.9014 151.593 59.9014C153.817 59.9014 155.139 61.0448 155.139 63.3317C155.139 65.6185 153.817 66.7018 151.593 66.7018ZM154.298 72.1181V100.764H148.888V72.1181H154.298Z" fill="black"/>
<path d="M158.505 72.1182H164.516L171.609 93.5424L178.642 72.1182H184.652L174.194 100.764H168.964L158.505 72.1182Z" fill="black"/>
<path d="M191.685 88.6088C192.286 93.8446 195.292 95.9508 198.958 95.9508C203.106 95.9508 205.57 94.9277 207.674 93.8446L208.636 99.0801C206.051 100.284 203.406 101.066 198.898 101.066C191.685 101.066 185.855 96.6128 185.855 86.683C185.855 76.9939 191.265 71.8184 198.057 71.8184C205.811 71.8184 210.078 77.355 210.078 85.7201V88.6088H191.685ZM204.368 84.2757C204.368 79.2808 201.904 76.6328 198.057 76.6328C195.111 76.6328 192.286 78.3179 191.685 84.2757H204.368Z" fill="black"/>
<path d="M229.254 78.0772C228.591 77.7764 227.389 77.355 225.887 77.355C223.602 77.355 222.1 79.2206 222.1 82.1695V100.765H216.69V72.1192H222.1V75.369C223.002 73.5035 224.445 71.8184 227.329 71.8184C228.411 71.8184 229.434 72.1192 229.974 72.3601L229.254 78.0772Z" fill="black"/>
<path d="M253.656 100.764H232.378L246.022 76.6317H232.98V72.1182H254.318L241.273 95.9497H253.656V100.764Z" fill="black"/>
<path d="M262.433 66.7018C260.149 66.7018 258.887 65.4982 258.887 63.3317C258.887 61.0448 260.149 59.9014 262.433 59.9014C264.656 59.9014 265.978 61.0448 265.978 63.3317C265.978 65.6185 264.656 66.7018 262.433 66.7018ZM265.138 72.1181V100.764H259.727V72.1181H265.138Z" fill="black"/>
<path d="M287.318 100.103C286.356 100.584 285.093 101.066 282.629 101.066C279.322 101.066 275.476 99.8021 275.476 93.5432V76.6325H271.749V72.119H275.476V60.9856L280.887 60.3838V72.119H285.573V76.6325H280.887V93.5432C280.887 95.5894 281.967 96.1912 283.169 96.1912C284.553 96.1912 285.573 95.7699 286.596 95.2885L287.318 100.103Z" fill="black"/>
<path d="M307.453 98.2377C306.551 99.2608 304.629 101.066 300.602 101.066C294.411 101.066 290.925 97.8164 290.925 91.9188C290.925 85.8404 295.131 82.5908 300.782 82.5908C303.787 82.5908 306.311 83.7341 307.453 84.9377V81.4472C307.453 78.017 305.169 76.7532 302.165 76.7532C298.798 76.7532 295.793 77.8364 294.169 78.4984L293.569 73.5637C295.311 72.9017 298.138 71.8184 302.765 71.8184C309.198 71.8184 312.862 75.1886 312.862 81.4472V100.765H307.453V98.2377ZM307.453 91.0761C307.453 88.8495 304.749 87.345 301.865 87.345C299.038 87.345 296.633 88.5486 296.633 91.9188C296.633 94.9879 299.218 96.1312 301.865 96.1312C304.989 96.1312 307.453 94.0852 307.453 92.039V91.0761Z" fill="black"/>
<path d="M343.218 100.764V62.7903H332.7V57.374H359.447V62.7903H348.929V100.764H343.218Z" fill="black"/>
<path d="M370.387 101.066C363.413 101.066 357.344 97.0341 357.344 86.4424C357.344 75.8506 363.656 71.8184 370.387 71.8184C377.18 71.8184 383.431 75.8506 383.431 86.4424C383.431 97.0341 377.3 101.066 370.387 101.066ZM370.387 76.6328C366.12 76.6328 363.053 80.003 363.053 86.4424C363.053 92.6408 366.24 95.9508 370.387 95.9508C374.596 95.9508 377.72 92.6408 377.72 86.4424C377.72 80.003 374.656 76.6328 370.387 76.6328Z" fill="black"/>
<path d="M422.14 82.1092C422.14 78.8595 420.338 76.6328 417.151 76.6328C413.425 76.6328 411.5 78.9197 411.5 82.1695V100.765H406.091V82.1092C406.091 78.8595 404.289 76.6328 401.103 76.6328C397.376 76.6328 395.451 78.9197 395.451 82.1695V100.765H390.042V72.1192H395.451V74.5266C396.474 73.323 398.578 71.8184 402.005 71.8184C405.551 71.8184 408.376 73.323 409.998 76.031C411.5 73.8646 414.147 71.8184 418.054 71.8184C423.643 71.8184 427.549 75.6097 427.549 81.989V100.765H422.14V82.1092Z" fill="black"/>
<path d="M450.691 98.2371C449.789 99.2602 447.867 101.066 443.84 101.066C437.649 101.066 434.162 97.8158 434.162 91.9182C434.162 85.84 438.369 82.5902 444.02 82.5902C447.025 82.5902 449.549 83.7335 450.691 84.9371V81.4467C450.691 78.0164 448.407 76.7527 445.402 76.7527C442.036 76.7527 439.031 77.836 437.407 78.4978L436.807 73.5631C438.549 72.9011 441.376 71.8178 446.002 71.8178C452.436 71.8178 456.102 75.188 456.102 81.4467V100.765H450.691V98.2371ZM450.691 91.0755C450.691 88.8489 447.987 87.3444 445.102 87.3444C442.276 87.3444 439.871 88.548 439.871 91.9182C439.871 94.9873 442.458 96.1309 445.102 96.1309C448.227 96.1309 450.691 94.0847 450.691 92.0384V91.0755ZM447.025 58.5781H453.096L447.447 68.0866H443.178L447.025 58.5781Z" fill="black"/>
<path d="M472.151 101.066C467.642 101.066 464.516 99.8018 462.773 99.0195L463.736 93.904C466.02 94.9873 468.905 95.9502 472.151 95.9502C474.676 95.9502 477.08 95.228 477.08 92.6402C477.08 90.0524 474.313 89.3907 471.249 88.6082C467.282 87.5851 462.713 86.3213 462.713 80.3635C462.713 74.5862 466.74 71.8178 473.473 71.8178C477.44 71.8178 480.264 72.7204 482.189 73.5029L481.287 78.558C479.062 77.5349 476.898 76.6322 473.593 76.6322C470.347 76.6322 468.365 77.7155 468.365 80.3033C468.365 82.3493 470.707 83.0113 473.473 83.7938C477.68 84.9371 482.909 86.2611 482.909 92.52C482.909 97.9964 479.724 101.066 472.151 101.066ZM464.336 58.5781H469.145L472.811 63.9342L476.478 58.5781H481.287L475.696 68.0866H469.927L464.336 58.5781Z" fill="black"/>
<path d="M493.549 88.6088C494.149 93.8446 497.156 95.9508 500.822 95.9508C504.969 95.9508 507.433 94.9277 509.538 93.8446L510.5 99.0801C507.916 100.284 505.269 101.066 500.762 101.066C493.549 101.066 487.718 96.6128 487.718 86.683C487.718 76.9939 493.129 71.8184 499.92 71.8184C507.673 71.8184 511.942 77.355 511.942 85.7201V88.6088H493.549ZM506.231 84.2757C506.231 79.2808 503.767 76.6328 499.92 76.6328C496.976 76.6328 494.149 78.3179 493.549 84.2757H506.231Z" fill="black"/>
<path d="M544.4 100.764H532.378V57.374H545.302C553.296 57.374 557.985 61.7672 557.985 68.9288C557.985 73.8634 555.4 76.5717 551.793 78.3168C555.7 79.9417 558.285 83.673 558.285 88.3068C558.285 96.1303 552.936 100.764 544.4 100.764ZM545.362 62.7903H538.089V75.669H544.58C549.029 75.669 551.973 73.5023 551.973 69.2297C551.973 64.8364 549.209 62.7903 545.362 62.7903ZM544.58 81.0852H538.089V95.3479H544.58C549.089 95.3479 552.273 92.8806 552.273 88.4272C552.273 83.7932 549.029 81.0852 544.58 81.0852Z" fill="black"/>
<path d="M580.225 98.2377C579.323 99.2608 577.4 101.066 573.374 101.066C567.182 101.066 563.696 97.8164 563.696 91.9188C563.696 85.8404 567.902 82.5908 573.554 82.5908C576.558 82.5908 579.083 83.7341 580.225 84.9377V81.4472C580.225 78.017 577.94 76.7532 574.936 76.7532C571.569 76.7532 568.565 77.8364 566.94 78.4984L566.34 73.5637C568.082 72.9017 570.909 71.8184 575.536 71.8184C581.969 71.8184 585.636 75.1886 585.636 81.4472V100.765H580.225V98.2377ZM580.225 91.0761C580.225 88.8495 577.52 87.345 574.636 87.345C571.809 87.345 569.405 88.5486 569.405 91.9188C569.405 94.9879 571.989 96.1312 574.636 96.1312C577.76 96.1312 580.225 94.0852 580.225 92.039V91.0761Z" fill="black"/>
<path d="M606.611 100.103C605.651 100.584 604.389 101.066 601.924 101.066C598.618 101.066 594.771 99.8021 594.771 93.5432V76.6325H591.044V72.119H594.771V60.9856L600.18 60.3838V72.119H604.869V76.6325H600.18V93.5432C600.18 95.5894 601.262 96.1912 602.464 96.1912C603.847 96.1912 604.869 95.7699 605.891 95.2885L606.611 100.103Z" fill="black"/>
<path d="M614.727 66.7018C612.442 66.7018 611.18 65.4982 611.18 63.3317C611.18 61.0448 612.442 59.9014 614.727 59.9014C616.951 59.9014 618.273 61.0448 618.273 63.3317C618.273 65.6185 616.951 66.7018 614.727 66.7018ZM617.431 72.1181V100.764H612.022V72.1181H617.431Z" fill="black"/>
</g>
<defs>
<clipPath id="clip0">
<rect width="824.444" height="120" fill="white" transform="translate(0 46)"/>
</clipPath>
</defs>
</svg>
