<svg width="940" height="212" viewBox="0 0 940 212" fill="none" xmlns="http://www.w3.org/2000/svg">
<g clip-path="url(#clip0)">
<path d="M93.2296 136.097V140.488H80.9713V156.606H76.4087V121.59H95.1537V125.981H80.9713V136.152H93.2296V136.097Z" fill="black"/>
<path d="M109.611 154.551C108.896 155.385 107.357 156.83 104.114 156.83C99.1663 156.83 96.3628 154.218 96.3628 149.438C96.3628 144.546 99.7161 141.879 104.224 141.879C106.642 141.879 108.621 142.823 109.556 143.768V140.934C109.556 138.155 107.742 137.154 105.323 137.154C102.629 137.154 100.211 138.043 98.9465 138.544L98.4516 134.542C99.8259 133.986 102.135 133.152 105.818 133.152C110.985 133.152 113.898 135.876 113.898 140.934V156.552H109.556V154.551H109.611ZM109.611 148.771C109.611 146.992 107.467 145.769 105.158 145.769C102.904 145.769 100.98 146.714 100.98 149.438C100.98 151.939 103.069 152.828 105.158 152.828C107.632 152.828 109.611 151.16 109.611 149.549V148.771Z" fill="black"/>
<path d="M125.002 156.606H120.66V121.59H125.002V142.655L132.478 133.484H138.03L129.62 143.267L139.35 156.606H133.853L125.002 144.1V156.606Z" fill="black"/>
<path d="M155.071 154.384C154.301 155.384 152.982 156.829 149.574 156.829C145.121 156.829 142.208 153.772 142.208 148.603V133.43H146.551V148.492C146.551 151.104 147.76 152.939 150.289 152.939C153.422 152.939 155.071 150.604 155.071 147.992V133.485H159.414V156.607H155.071V154.384Z" fill="black"/>
<path d="M170.463 121.536V156.552H166.12V121.536H170.463Z" fill="black"/>
<path d="M187.229 156.052C186.459 156.441 185.47 156.83 183.491 156.83C180.852 156.83 177.774 155.829 177.774 150.772V137.099H174.805V133.43H177.774V124.426L182.116 123.926V133.43H185.854V137.099H182.116V150.772C182.116 152.439 182.996 152.884 183.931 152.884C185.03 152.884 185.854 152.55 186.679 152.161L187.229 156.052Z" fill="black"/>
<path d="M203.335 154.551C202.62 155.385 201.081 156.83 197.838 156.83C192.891 156.83 190.087 154.218 190.087 149.438C190.087 144.546 193.44 141.879 197.948 141.879C200.367 141.879 202.346 142.823 203.28 143.768V140.934C203.28 138.155 201.466 137.154 199.047 137.154C196.354 137.154 193.935 138.043 192.671 138.544L192.176 134.542C193.55 133.986 195.859 133.152 199.542 133.152C204.71 133.152 207.622 135.876 207.622 140.934V156.552H203.28V154.551H203.335ZM203.335 148.771C203.335 146.992 201.191 145.769 198.883 145.769C196.629 145.769 194.705 146.714 194.705 149.438C194.705 151.939 196.794 152.828 198.883 152.828C201.356 152.828 203.335 151.16 203.335 149.549V148.771Z" fill="black"/>
<path d="M235.548 156.052C234.777 156.441 233.788 156.83 231.809 156.83C229.172 156.83 226.092 155.829 226.092 150.772V137.099H223.125V133.43H226.092V124.426L230.435 123.926V133.43H234.173V137.099H230.435V150.772C230.435 152.439 231.315 152.884 232.249 152.884C233.349 152.884 234.173 152.55 234.999 152.161L235.548 156.052Z" fill="black"/>
<path d="M243.079 146.77C243.574 150.994 245.992 152.717 248.905 152.717C252.204 152.717 254.182 151.883 255.887 150.994L256.656 155.218C254.567 156.163 252.478 156.83 248.85 156.83C243.079 156.83 238.406 153.217 238.406 145.213C238.406 137.377 242.748 133.208 248.191 133.208C254.402 133.208 257.811 137.655 257.811 144.435V146.77H243.079ZM253.249 143.268C253.249 139.211 251.27 137.099 248.191 137.099C245.827 137.099 243.574 138.433 243.079 143.268H253.249Z" fill="black"/>
<path d="M277.71 155.329C276.885 155.774 274.247 156.83 271.828 156.83C267.541 156.83 262.098 154.607 262.098 144.991C262.098 135.765 267.596 133.208 271.828 133.208C274.411 133.208 276.665 134.264 277.71 134.82L276.72 138.766C275.622 138.21 273.643 137.21 271.828 137.21C269.243 137.21 266.66 139.544 266.66 144.991C266.66 150.605 269.188 152.717 271.828 152.717C273.752 152.717 275.622 151.772 276.72 151.105L277.71 155.329Z" fill="black"/>
<path d="M295.355 141.545C295.355 138.933 293.927 137.099 291.342 137.099C288.374 137.099 286.835 138.933 286.835 141.545V156.552H282.492V121.536H286.835V135.376C287.66 134.431 289.308 133.208 292.058 133.208C296.51 133.208 299.642 136.265 299.642 141.434V156.608H295.3V141.545H295.355Z" fill="black"/>
<path d="M319.267 141.545C319.267 138.933 317.837 137.099 315.254 137.099C312.287 137.099 310.747 138.933 310.747 141.545V156.552H306.405V133.43H310.747V135.376C311.571 134.431 313.22 133.208 315.968 133.208C320.422 133.208 323.555 136.265 323.555 141.434V156.608H319.212V141.545H319.267Z" fill="black"/>
<path d="M339.277 156.83C333.669 156.83 328.833 153.551 328.833 144.991C328.833 136.432 333.889 133.208 339.277 133.208C344.719 133.208 349.721 136.487 349.721 144.991C349.721 153.606 344.829 156.83 339.277 156.83ZM339.277 137.099C335.868 137.099 333.395 139.822 333.395 144.991C333.395 149.994 335.923 152.661 339.277 152.661C342.63 152.661 345.159 149.994 345.159 144.991C345.159 139.822 342.74 137.099 339.277 137.099Z" fill="black"/>
<path d="M359.341 121.536V156.552H354.999V121.536H359.341Z" fill="black"/>
<path d="M375.063 156.83C369.456 156.83 364.617 153.551 364.617 144.991C364.617 136.432 369.675 133.208 375.063 133.208C380.504 133.208 385.507 136.487 385.507 144.991C385.507 153.606 380.614 156.83 375.063 156.83ZM375.063 137.099C371.654 137.099 369.181 139.822 369.181 144.991C369.181 149.994 371.709 152.661 375.063 152.661C378.415 152.661 380.943 149.994 380.943 144.991C380.943 139.822 378.47 137.099 375.063 137.099Z" fill="black"/>
<path d="M409.253 156.33C409.253 163.388 405.24 166.001 399.854 166.001C396.116 166.001 393.423 164.889 392.323 164.333L393.091 160.22C394.466 160.776 396.72 161.888 399.799 161.888C402.712 161.888 404.91 159.887 404.91 156.607V153.717C404.251 154.551 402.382 156.33 398.973 156.33C394.796 156.33 389.849 153.439 389.849 144.936C389.849 136.654 394.521 133.152 399.413 133.152C403.041 133.152 404.251 134.486 404.965 135.264V133.375H409.308V156.33H409.253ZM404.91 142.379C404.91 138.71 402.657 137.099 399.854 137.099C397.159 137.099 394.356 139.266 394.356 144.991C394.356 150.327 396.72 152.217 399.58 152.217C402.492 152.217 404.855 150.494 404.855 146.77V142.379H404.91Z" fill="black"/>
<path d="M418.159 129.094C416.345 129.094 415.3 128.15 415.3 126.371C415.3 124.537 416.29 123.592 418.159 123.592C419.919 123.592 421.017 124.537 421.017 126.371C421.017 128.205 419.919 129.094 418.159 129.094ZM420.303 133.485V156.607H415.961V133.485H420.303Z" fill="black"/>
<path d="M441.685 155.329C440.862 155.774 438.224 156.83 435.803 156.83C431.516 156.83 426.075 154.607 426.075 144.991C426.075 135.765 431.571 133.208 435.803 133.208C438.388 133.208 440.642 134.264 441.685 134.82L440.752 138.766C439.651 138.21 437.672 137.21 435.858 137.21C433.275 137.21 430.692 139.544 430.692 144.991C430.692 150.605 433.22 152.717 435.858 152.717C437.782 152.717 439.651 151.772 440.752 151.105L441.685 155.329Z" fill="black"/>
<path d="M450.811 156.606H446.469V121.59H450.811V142.655L458.286 133.484H463.838L455.428 143.267L465.158 156.606H459.661L450.811 144.1V156.606Z" fill="black"/>
<path d="M479.616 154.55C478.902 155.384 477.362 156.829 474.118 156.829C469.171 156.829 466.367 154.216 466.367 149.437C466.367 144.545 469.721 141.877 474.228 141.877C476.646 141.877 478.625 142.822 479.561 143.767V140.933C479.561 138.153 477.746 137.153 475.328 137.153C472.633 137.153 470.215 138.042 468.952 138.543L468.456 134.541C469.83 133.985 472.084 133.151 475.822 133.151C480.99 133.151 483.903 135.875 483.903 140.933V156.551H479.561V154.55H479.616ZM479.616 148.77C479.616 146.991 477.472 145.768 475.163 145.768C472.91 145.768 470.986 146.713 470.986 149.437C470.986 151.938 473.074 152.827 475.163 152.827C477.637 152.827 479.616 151.159 479.616 149.548V148.77ZM476.701 122.535H481.54L477.032 130.205H473.624L476.701 122.535Z" fill="black"/>
<path d="M41.1486 46.1667L-0.00030177 60.0065V46H41.1486V46.1667ZM0.166518 62.1186C0.166518 64.1195 3.44731 65.9537 7.33976 65.9537C8.78552 65.9537 10.1757 65.6758 11.3434 65.2867C12.5668 64.8976 50.8241 51.5025 50.8241 51.5025V106.472C50.8241 106.472 12.2887 119.923 11.2322 120.312C10.1201 120.701 8.5075 120.979 7.22853 120.979C3.28049 120.979 -0.0559082 118.978 -0.0559082 115.421V62.1186H0.166518Z" fill="#172983"/>
<path d="M101.145 82.7393C101.145 91.8547 97.6821 96.8568 88.8869 96.8568C80.0917 96.8568 76.4636 91.8547 76.4636 82.7393V56.5049H81.6859V82.517C81.6859 88.6865 83.3899 91.8547 88.8869 91.8547C94.3839 91.8547 95.9231 88.6865 95.9231 82.517V56.5049H101.145V82.7393Z" fill="black"/>
<path d="M123.518 79.3491C123.518 76.3477 121.869 74.2912 118.956 74.2912C115.547 74.2912 113.789 76.4034 113.789 79.4049V96.5793H108.841V70.1228H113.789V72.346C114.723 71.2343 116.647 69.8447 119.78 69.8447C124.893 69.8447 128.466 73.3465 128.466 79.2381V96.5793H123.518V79.3491Z" fill="black"/>
<path d="M138.635 65.1196C136.546 65.1196 135.392 64.0079 135.392 62.007C135.392 59.8949 136.546 58.8389 138.635 58.8389C140.669 58.8389 141.878 59.8949 141.878 62.007C141.878 64.1191 140.669 65.1196 138.635 65.1196ZM141.109 70.1218V96.5786H136.161V70.1218H141.109Z" fill="black"/>
<path d="M144.957 70.123H150.454L156.94 89.9098L163.372 70.123H168.869L159.304 96.5796H154.521L144.957 70.123Z" fill="black"/>
<path d="M175.3 85.352C175.85 90.1876 178.598 92.1328 181.952 92.1328C185.745 92.1328 187.998 91.188 189.922 90.1876L190.802 95.0232C188.438 96.1347 186.019 96.8573 181.897 96.8573C175.3 96.8573 169.968 92.7442 169.968 83.5733C169.968 74.6248 174.915 69.8447 181.127 69.8447C188.218 69.8447 192.121 74.9584 192.121 82.6841V85.352H175.3ZM186.899 81.3501C186.899 76.7368 184.645 74.2912 181.127 74.2912C178.434 74.2912 175.85 75.8476 175.3 81.3501H186.899Z" fill="black"/>
<path d="M209.656 75.6253C209.052 75.3474 207.952 74.9584 206.579 74.9584C204.49 74.9584 203.115 76.6813 203.115 79.4049V96.5793H198.167V70.1228H203.115V73.1242C203.939 71.4011 205.259 69.8447 207.897 69.8447C208.887 69.8447 209.821 70.1228 210.315 70.3451L209.656 75.6253Z" fill="black"/>
<path d="M231.974 96.5796H212.516L224.994 74.2915H213.065V70.123H232.578L220.651 92.1331H231.974V96.5796Z" fill="black"/>
<path d="M240 65.1196C237.911 65.1196 236.756 64.0079 236.756 62.007C236.756 59.8949 237.911 58.8389 240 58.8389C242.034 58.8389 243.244 59.8949 243.244 62.007C243.244 64.1191 242.034 65.1196 240 65.1196ZM242.473 70.1218V96.5786H237.527V70.1218H242.473Z" fill="black"/>
<path d="M262.757 95.9678C261.879 96.4126 260.723 96.8572 258.47 96.8572C255.448 96.8572 251.929 95.6899 251.929 89.9094V74.2911H248.52V70.1226H251.929V59.84L256.875 59.2842V70.1226H261.163V74.2911H256.875V89.9094C256.875 91.7993 257.866 92.3549 258.964 92.3549C260.229 92.3549 261.163 91.9661 262.098 91.5212L262.757 95.9678Z" fill="black"/>
<path d="M281.172 94.245C280.349 95.1899 278.589 96.8573 274.906 96.8573C269.244 96.8573 266.056 93.8559 266.056 88.4089C266.056 82.7952 269.905 79.7937 275.071 79.7937C277.82 79.7937 280.129 80.8499 281.172 81.9615V78.7377C281.172 75.5697 279.084 74.4025 276.336 74.4025C273.256 74.4025 270.509 75.403 269.024 76.0144L268.475 71.4566C270.069 70.8452 272.652 69.8447 276.885 69.8447C282.767 69.8447 286.121 72.9574 286.121 78.7377V96.5793H281.172V94.245ZM281.172 87.6308C281.172 85.5743 278.699 84.1847 276.061 84.1847C273.476 84.1847 271.277 85.2965 271.277 88.4089C271.277 91.2436 273.643 92.2996 276.061 92.2996C278.919 92.2996 281.172 90.4099 281.172 88.5202V87.6308Z" fill="black"/>
<path d="M313.879 96.579V61.5072H304.261V56.5049H328.723V61.5072H319.102V96.579H313.879Z" fill="black"/>
<path d="M338.727 96.8573C332.349 96.8573 326.799 93.1333 326.799 83.351C326.799 73.5688 332.571 69.8447 338.727 69.8447C344.939 69.8447 350.654 73.5688 350.654 83.351C350.654 93.1333 345.049 96.8573 338.727 96.8573ZM338.727 74.2912C334.824 74.2912 332.02 77.4039 332.02 83.351C332.02 89.0758 334.934 92.1328 338.727 92.1328C342.573 92.1328 345.433 89.0758 345.433 83.351C345.433 77.4039 342.628 74.2912 338.727 74.2912Z" fill="black"/>
<path d="M386.056 79.3491C386.056 76.3477 384.407 74.2912 381.494 74.2912C378.085 74.2912 376.326 76.4034 376.326 79.4049V96.5793H371.38V79.3491C371.38 76.3477 369.73 74.2912 366.815 74.2912C363.409 74.2912 361.649 76.4034 361.649 79.4049V96.5793H356.701V70.1228H361.649V72.346C362.583 71.2343 364.507 69.8447 367.641 69.8447C370.883 69.8447 373.468 71.2343 374.951 73.7356C376.326 71.7346 378.744 69.8447 382.318 69.8447C387.431 69.8447 391.003 73.3465 391.003 79.2381V96.5793H386.056V79.3491Z" fill="black"/>
<path d="M412.168 94.2453C411.342 95.1901 409.582 96.8577 405.901 96.8577C400.239 96.8577 397.05 93.8562 397.05 88.4093C397.05 82.7955 400.898 79.7941 406.066 79.7941C408.814 79.7941 411.122 80.8503 412.168 81.9618V78.7381C412.168 75.5699 410.079 74.4028 407.329 74.4028C404.252 74.4028 401.502 75.4033 400.019 76.0147L399.468 71.4569C401.062 70.8455 403.645 69.845 407.88 69.845C413.76 69.845 417.114 72.9577 417.114 78.7381V96.5796H412.168V94.2453ZM412.168 87.6311C412.168 85.5746 409.692 84.185 407.054 84.185C404.471 84.185 402.273 85.2966 402.273 88.4093C402.273 91.2439 404.636 92.2999 407.054 92.2999C409.914 92.2999 412.168 90.4102 412.168 88.5203V87.6311ZM408.814 57.6172H414.366L409.198 66.399H405.295L408.814 57.6172Z" fill="black"/>
<path d="M431.79 96.8577C427.668 96.8577 424.81 95.6904 423.216 94.9678L424.096 90.2434C426.185 91.2439 428.823 92.1331 431.79 92.1331C434.099 92.1331 436.3 91.4662 436.3 89.0762C436.3 86.6861 433.769 86.0747 430.967 85.3523C427.338 84.4074 423.161 83.2401 423.161 77.7376C423.161 72.4019 426.844 69.845 433.001 69.845C436.629 69.845 439.212 70.6787 440.972 71.4014L440.146 76.0702C438.112 75.1252 436.133 74.2916 433.11 74.2916C430.143 74.2916 428.329 75.292 428.329 77.6821C428.329 79.5718 430.473 80.1831 433.001 80.9058C436.849 81.9618 441.63 83.1846 441.63 88.9651C441.63 94.023 438.718 96.8577 431.79 96.8577ZM424.645 57.6172H429.043L432.397 62.5639L435.748 57.6172H440.146L435.035 66.399H429.757L424.645 57.6172Z" fill="black"/>
<path d="M451.36 85.352C451.91 90.1876 454.659 92.1328 458.011 92.1328C461.805 92.1328 464.058 91.188 465.982 90.1876L466.863 95.0232C464.497 96.1347 462.079 96.8573 457.956 96.8573C451.36 96.8573 446.028 92.7442 446.028 83.5733C446.028 74.6248 450.976 69.8447 457.188 69.8447C464.278 69.8447 468.181 74.9584 468.181 82.6841V85.352H451.36ZM462.96 81.3501C462.96 76.7368 460.706 74.2912 457.188 74.2912C454.495 74.2912 451.91 75.8476 451.36 81.3501H462.96Z" fill="black"/>
<path d="M497.866 96.579H486.87V56.5049H498.689C506.001 56.5049 510.289 60.5623 510.289 67.1766C510.289 71.7341 507.925 74.2354 504.626 75.8473C508.2 77.3479 510.563 80.7939 510.563 85.0736C510.563 92.2993 505.672 96.579 497.866 96.579ZM498.744 61.5072H492.093V73.4015H498.03C502.098 73.4015 504.791 71.4008 504.791 67.4544C504.791 63.397 502.263 61.5072 498.744 61.5072ZM498.03 78.4039H492.093V91.5766H498.03C502.153 91.5766 505.066 89.2979 505.066 85.1849C505.066 80.9052 502.098 78.4039 498.03 78.4039Z" fill="black"/>
<path d="M530.628 94.245C529.802 95.1899 528.045 96.8573 524.361 96.8573C518.699 96.8573 515.51 93.8559 515.51 88.4089C515.51 82.7952 519.358 79.7937 524.526 79.7937C527.274 79.7937 529.582 80.8499 530.628 81.9615V78.7377C530.628 75.5697 528.539 74.4025 525.791 74.4025C522.712 74.4025 519.964 75.403 518.479 76.0144L517.93 71.4566C519.523 70.8452 522.108 69.8447 526.34 69.8447C532.222 69.8447 535.574 72.9574 535.574 78.7377V96.5793H530.628V94.245ZM530.628 87.6308C530.628 85.5743 528.155 84.1847 525.515 84.1847C522.931 84.1847 520.733 85.2965 520.733 88.4089C520.733 91.2436 523.096 92.2996 525.515 92.2996C528.374 92.2996 530.628 90.4099 530.628 88.5202V87.6308Z" fill="black"/>
<path d="M554.76 95.9678C553.879 96.4126 552.726 96.8572 550.473 96.8572C547.448 96.8572 543.932 95.6899 543.932 89.9094V74.2911H540.523V70.1226H543.932V59.84L548.878 59.2842V70.1226H553.165V74.2911H548.878V89.9094C548.878 91.7993 549.866 92.3549 550.967 92.3549C552.232 92.3549 553.165 91.9661 554.101 91.5212L554.76 95.9678Z" fill="black"/>
<path d="M562.18 65.1196C560.091 65.1196 558.938 64.0079 558.938 62.007C558.938 59.8949 560.091 58.8389 562.18 58.8389C564.214 58.8389 565.424 59.8949 565.424 62.007C565.424 64.1191 564.214 65.1196 562.18 65.1196ZM564.655 70.1218V96.5786H559.707V70.1218H564.655Z" fill="black"/>
</g>
<defs>
<clipPath id="clip0">
<rect width="565.424" height="120" fill="white" transform="translate(0 46)"/>
</clipPath>
</defs>
</svg>
